<svg width="213" height="167" viewBox="0 0 213 167" fill="none" xmlns="http://www.w3.org/2000/svg">
<g clip-path="url(#clip0_88_414)">
<path d="M172.825 99.7887L146.921 101.277C146.921 101.277 144.957 109.691 144.215 116.069C143.474 122.448 147.134 128.742 147.134 128.742L148.746 139.634C136.523 143.054 131.829 150.125 125.918 156.783C121.625 161.643 117.101 166.503 112.76 168.52C108.959 170.3 107.64 171.557 113.228 176.338C116.268 178.92 119.102 178.161 119.102 178.161C119.102 178.161 143.139 164.389 154.68 158.144C163.418 153.995 164.799 153.794 167.657 145.484C173.586 128.322 173.707 106.258 172.825 99.7887Z" fill="#F0997A"/>
<path d="M146.703 129.07C146.703 129.07 143.328 123.475 143.462 118.372C143.596 113.269 146.168 101.253 146.168 101.253L172.826 99.7827C174.127 107.358 173.3 120.85 172.115 128.286C170.412 138.285 168.606 147.063 166.283 150.544C163.96 154.025 163.583 154.457 153.684 159.286C143.784 164.116 128.753 172.967 128.753 172.967C128.753 172.967 125.931 173.337 122.891 168.83C120.75 165.659 120.538 163.52 120.538 162.378C121.292 161.455 122.605 159.851 124.223 157.943C126.789 154.906 133.228 147.009 136.895 144.536C140.397 142.278 144.189 140.504 148.169 139.263L146.703 129.07Z" fill="#1F4787"/>
<path d="M161.242 112.212C163.005 119.259 160.324 138.571 160.026 140.764C159.637 143.497 156.274 144.153 152.376 144.913C150.59 145.216 148.828 145.646 147.104 146.201C142.069 147.962 138.895 151.243 134.079 156.2L132.96 157.354C130.285 160.1 127.409 161.133 125.262 160.124C124.568 159.808 124.014 159.248 123.705 158.551C123.559 158.727 123.414 158.891 123.28 159.061C123.668 159.768 124.274 160.333 125.007 160.671C125.632 160.966 126.316 161.115 127.007 161.108C129.014 161.108 131.264 159.954 133.392 157.779L134.517 156.625C139.266 151.729 142.422 148.491 147.287 146.772C148.987 146.216 150.724 145.782 152.486 145.472C156.432 144.7 160.166 143.971 160.616 140.812C160.932 138.619 163.626 119.204 161.832 112.042C160.762 107.789 156.894 103.403 153.045 100.852L151.999 100.912C155.952 103.33 160.16 107.893 161.242 112.212Z" fill="black"/>
<path d="M114.134 167.797C112.918 168.757 112.535 169.285 112.31 171.071C112.176 172.187 112.424 173.316 113.015 174.273C113.623 175.22 111.422 178.221 110.109 182.097C109.19 184.788 108.345 189.679 108.704 190.25C109.768 189.642 112.632 189.751 114.213 190.25C113.975 192.798 113.914 195.359 114.031 197.916C114.237 200.814 114.785 201.385 113.818 202.442C113.271 203.049 111.039 204.374 109.64 204.161C108.631 204.009 104.879 201.889 102.435 196.574C100.154 191.623 101.492 188.221 102.666 183.956C103.651 180.396 103.882 178.057 103.791 176.441C103.669 174.048 103.499 172.383 104.326 171.035C105.224 170.056 106.349 169.313 107.603 168.872C109.805 168.052 111.592 167.657 113.277 166.843C113.612 166.697 113.978 166.632 114.344 166.654C114.71 166.676 115.065 166.785 115.381 166.971C115.089 167.208 114.535 167.554 114.134 167.797Z" fill="#1F4787"/>
<path d="M163.249 166.321C163.249 166.321 152.37 154.122 144.599 145.253C141.188 141.365 136.305 135.175 133.653 129.118C130.753 122.436 131.154 114.854 132.383 109.679C133.495 104.983 135.253 101.976 137.247 98.7863L172.844 99.813C171.825 103.764 170.483 107.624 168.831 111.355C166.447 116.41 161.4 119.465 161.4 119.465C168.885 133.583 182.075 152.713 182.75 159.219C183.078 162.257 183.005 168.271 182.567 175.251C181.473 191.276 181.223 208.122 181.242 211.743C181.242 215.175 181.162 219.081 183.485 223.455C185.078 226.45 185.249 229.694 187.699 231.875C190.15 234.056 195.422 235.38 193.281 238.417C191.141 241.455 186.507 241.455 182.409 240.926C178.311 240.398 174.911 234.505 173.634 230.969C172.358 227.434 168.904 225.077 166.569 223.109C164.234 221.14 164.811 218.856 166.721 215.94C168.63 213.024 168.91 212.739 168.697 209.3C168.204 201.567 164.866 189.405 163.759 183.64C161.376 171.229 163.249 166.321 163.249 166.321Z" fill="#FFBDA7"/>
<path d="M138.451 138.613C135.898 134.968 133.119 131.384 131.465 125.643C129.841 120.006 129.72 114.162 131.094 109.302C132.285 105.157 134.381 101.328 137.229 98.0878L172.826 99.7644C174.395 112.479 163.383 120.273 163.383 120.273L167.809 128.079C172.674 136.08 180.518 150.939 182.197 155.283C183.875 159.626 183.832 159.936 183.188 170.713C182.543 181.49 181.363 204.659 181.363 204.659C181.363 204.659 179.88 206.591 174.206 206.482C168.533 206.372 167.828 204.465 167.828 204.465C167.828 204.465 166.082 195.778 165.322 192.315C163.887 185.736 160.713 174.479 162.799 166.479C162.781 166.497 141.005 142.289 138.451 138.613Z" fill="#37474F"/>
<path d="M169.281 180.196C168.992 176.977 168.98 173.739 169.244 170.518C169.451 166.952 169.621 164.134 168.284 162.178C167.329 160.78 165.517 158.533 163.224 155.665C156.955 147.853 147.475 136.037 144.325 127.776C143.067 124.389 142.117 120.896 141.486 117.339C140.926 114.532 140.482 112.315 139.449 110.395C138.031 107.711 135.812 105.532 133.1 104.163C133.003 104.339 132.912 104.521 132.827 104.703C135.421 106.012 137.545 108.092 138.907 110.657C139.899 112.479 140.336 114.678 140.884 117.43C141.524 121.021 142.483 124.548 143.748 127.97C146.934 136.317 156.45 148.175 162.744 156.024C165.03 158.867 166.836 161.115 167.773 162.494C168.989 164.28 168.843 166.874 168.63 170.464C168.368 173.715 168.382 176.983 168.673 180.232C169.147 184.746 169.36 189.66 167.353 191.866C166.9 192.355 166.325 192.716 165.687 192.91C165.73 193.093 165.772 193.293 165.821 193.518C166.58 193.304 167.264 192.883 167.797 192.303C169.98 189.915 169.773 184.843 169.281 180.196Z" fill="#1F4787"/>
<path d="M165.536 50.8616C169.695 51.0864 174.395 51.5177 180.057 55.3631C184.283 58.2305 203.99 72.0569 207.085 74.6569C207.085 74.6569 203.255 87.0375 202.993 86.9768C199.624 86.1749 171.306 71.3886 171.306 71.3886L165.536 50.8616Z" fill="#FFBDA7"/>
<path d="M196.656 67.0026C195.282 72.8345 195.391 76.9897 197.501 80.1608L201.758 70.6597C200.213 69.5358 198.474 68.3209 196.656 67.0026Z" fill="#F0997A"/>
<path d="M197.094 71.5223C198.833 63.0722 201.624 58.0968 202.305 51.7607C202.457 50.3453 201.697 49.5616 200.949 48.2981C200.154 46.7327 199.451 45.1222 198.845 43.4746C198.246 41.9984 197.562 40.5582 196.796 39.1615C196.74 39.0684 196.697 38.9683 196.668 38.8638C196.559 38.3596 197.167 37.989 197.684 37.9769C198.19 38.0081 198.683 38.1481 199.13 38.3871C199.577 38.6261 199.967 38.9586 200.274 39.3619C200.924 40.2059 201.616 41.0169 202.348 41.7919C203.047 41.3727 202.348 36.9988 201.831 34.7329C201.568 33.5761 201.206 32.444 200.748 31.3492C200.232 30.1342 199.587 28.9192 199.477 27.5767C199.463 27.2917 199.521 27.0076 199.645 26.7507C199.769 26.4938 199.956 26.2723 200.189 26.1066C200.268 26.0311 200.367 25.9804 200.475 25.9608C200.669 25.9608 200.821 26.1066 200.949 26.2584C201.691 27.1697 201.454 26.9692 202.202 27.8804C202.297 28.0129 202.414 28.128 202.548 28.2206C202.773 28.3368 203.019 28.4051 203.272 28.4211C203.791 28.5132 204.285 28.7126 204.723 29.0065C205.161 29.3005 205.532 29.6825 205.814 30.1281C205.977 30.464 206.181 30.7783 206.422 31.0636C206.718 31.3085 207.062 31.4904 207.431 31.5982C208.243 31.8014 208.969 32.2566 209.505 32.8983C209.809 33.3539 209.906 33.9188 210.21 34.3745C210.549 34.7871 210.923 35.1693 211.329 35.5165C212.34 36.6584 212.912 38.1229 212.94 39.6474C213.055 41.9161 213.004 44.19 212.788 46.4513C212.48 48.2605 212.277 50.086 212.18 51.9187C212.138 53.0608 212.01 54.1482 211.961 55.2842C211.761 59.7796 211.797 63.5156 211.59 68.0414C211.335 73.4541 211.353 74.6387 211.128 76.7224C210.855 79.207 209.833 83.7389 206.264 86.5698C202.658 89.4796 194.929 82.044 197.094 71.5223Z" fill="#FFBDA7"/>
<path d="M140.994 84.9964C141.322 86.9343 142.095 89.103 141.262 91.4965C140.428 93.89 139.255 95.3784 137.23 98.112C141.864 102.911 152.225 105.141 159.82 104.643C170.255 103.962 172.827 99.7826 172.827 99.7826L174.116 86.0656L140.994 84.9964Z" fill="#FFBDA7"/>
<path d="M180.489 68.1204C177.035 59.1599 165.536 50.8556 165.536 50.8556C163.913 50.6916 163.353 50.4121 156.306 50.6855C152.475 50.8313 147.057 51.2565 143.737 51.7061C141.061 53.4249 139.027 55.9761 137.948 58.9656C137.297 60.6665 136.665 66.9358 137.285 69.5419C138.58 75.0093 141.213 86.5029 141.213 86.5029C148.589 92.4745 169.118 92.2012 173.958 88.3254C173.958 88.3254 174.341 84.6805 174.645 81.7524C180.793 78.5449 182.179 72.5004 180.489 68.1204Z" fill="#A69E9D"/>
<path d="M173.957 88.368C174.231 86.3025 174.45 84.1156 174.644 81.795C171.811 81.558 170.959 80.3734 165.523 82.5665C160.087 84.7595 157.971 84.7777 152.097 84.1459C146.223 83.5142 139.741 80.1851 139.741 80.1851L141.2 86.5273C148.588 92.4746 169.117 92.2012 173.957 88.368Z" fill="#1F4787"/>
<path opacity="0.2" d="M173.957 88.368C174.231 86.3025 174.45 84.1156 174.644 81.795C171.811 81.558 170.959 80.3734 165.523 82.5665C160.087 84.7595 157.971 84.7777 152.097 84.1459C146.223 83.5142 139.741 80.1851 139.741 80.1851L141.2 86.5273C148.588 92.4746 169.117 92.2012 173.957 88.368Z" fill="black"/>
<path d="M167.256 81.9164C167.256 81.9164 161.078 84.2613 155.794 81.9772C150.084 79.5047 149.312 74.3654 149.829 72.3607C149.829 72.3607 147.196 80.5071 154.383 83.4716C161.425 86.3815 167.256 81.9164 167.256 81.9164Z" fill="#37474F"/>
<path d="M135.697 100.05L139.886 94.4428C139.886 94.4428 146.247 99.734 157.557 100.433C169.719 101.186 173.221 95.5727 173.221 95.5727L173.276 103.598C173.276 103.598 169.019 109.004 157.144 107.941C139.984 106.392 135.697 100.05 135.697 100.05Z" fill="#1F4787"/>
<path d="M120.154 113.712C119.151 111.647 118.427 110.14 118.457 109.411C118.579 108.245 120.567 111.07 121.419 111.611C122.088 112.11 122.926 112.328 123.754 112.218C124.289 112.188 125.11 111.611 125.012 111.064C125.012 110.954 124.903 110.894 124.824 110.815C123.717 109.499 122.727 108.091 121.863 106.605C121.11 105.362 120.194 104.226 119.138 103.227C117.781 101.893 116.898 100.152 116.621 98.2701C115.885 91.12 116.013 85.6708 116.189 78.7758C122.975 76.1697 133.477 72.4944 136.116 71.571C139.321 70.4472 140.798 69.5056 141.625 68.7887C144.611 66.2251 146.04 64.0078 146.964 60.7517C147.682 58.2063 148.028 52.9029 147.663 51.2688C142.331 51.3842 140.3 51.3174 134.675 53.4375C131.221 54.7376 124.836 57.7689 119.394 60.3872C114.74 62.6925 110.252 65.317 105.961 68.242C104.411 69.3233 102.514 70.4533 102.836 74.5963C103.099 78.5034 103.576 82.3931 104.265 86.2479C104.782 89.2854 105.207 90.6522 106.126 95.6397C106.302 96.5995 106.557 98.1122 106.843 99.8921C107.129 101.672 107.281 104.145 107.397 105.967C107.5 107.827 107.762 109.674 108.181 111.489C108.594 113.087 110.157 116.89 111.337 117.947C111.75 118.317 112.243 118.396 112.632 118.767C113.021 119.137 113.24 119.635 113.641 119.982C114.286 120.504 114.815 120.328 115.758 120.2C116.126 120.134 116.506 120.183 116.846 120.34C117.144 120.552 117.421 120.792 117.673 121.057C118.146 121.428 118.714 121.658 119.313 121.72C119.911 121.782 120.514 121.675 121.054 121.409C121.99 122.078 122.452 122.418 123.371 123.086C123.509 123.204 123.688 123.263 123.869 123.25C123.925 123.238 123.977 123.213 124.022 123.177C124.066 123.141 124.101 123.095 124.125 123.043C124.43 122.591 124.545 122.037 124.447 121.5C124.277 120.511 123.845 119.586 123.194 118.821C122.094 117.172 121.079 115.466 120.154 113.712Z" fill="#FFBDA7"/>
<path d="M178.366 25.4686C178.323 27.8986 177.466 30.6626 172.005 34.265C171.257 34.7571 154.541 43.6264 150.99 45.3821C150.99 45.3821 148.29 39.538 145.961 36.3669C142.471 31.6103 142.544 21.7265 148.394 19.9648C148.831 18.2154 149.694 16.601 150.907 15.2656C152.119 13.9301 153.644 12.9149 155.344 12.3104C165.432 8.68374 178.585 12.4319 178.366 25.4686Z" fill="#1F4787"/>
<path d="M146.357 36.9441C144.003 37.0352 143.413 39.2647 143.17 41.555C142.739 41.4387 142.283 41.4435 141.854 41.5689C141.425 41.6943 141.039 41.9354 140.738 42.2657C139.997 43.0092 139.487 43.9497 139.266 44.9751C136.968 44.6106 136.335 44.9265 135.229 45.5097C134.564 45.9358 133.965 46.4578 133.453 47.0588C132.113 46.3021 130.566 45.9934 129.039 46.1779C128.54 46.2319 128.059 46.3928 127.629 46.6497C127.199 46.9066 126.829 47.2534 126.545 47.6663C126.251 47.1919 125.857 46.7867 125.391 46.4784C124.925 46.1702 124.398 45.9661 123.846 45.8803C122.892 45.7096 121.908 45.8457 121.036 46.2691C120.988 45.9001 120.839 45.5516 120.605 45.2621C120.371 44.9727 120.062 44.7535 119.711 44.6288C118.239 44.1975 117.595 44.8658 116.67 44.7139C116.299 44.6643 115.947 44.5149 115.654 44.2817C115.361 44.0485 115.136 43.7402 115.004 43.3896C114.978 44.0448 115.116 44.6962 115.405 45.2849C115.694 45.8735 116.126 46.3808 116.66 46.7608C117.195 47.1408 117.817 47.3815 118.468 47.4611C119.12 47.5407 119.781 47.4567 120.392 47.2167C119.966 49.1425 123.499 49.8411 124.648 48.8144C125.956 50.8677 129.513 51.3537 131.307 49.4827C132.894 51.8701 137.284 50.9771 138.044 48.6322C139.771 49.8472 142.301 49.9444 142.963 47.6238C144.496 47.8789 146.74 48.371 147.409 46.1658C147.955 46.4008 148.556 46.4782 149.144 46.389C149.732 46.2999 150.283 46.0479 150.735 45.6616C151.708 44.8475 151.586 43.3592 151.738 42.126C152.006 39.9876 149.215 35.4011 146.357 36.9441Z" fill="#1F4787"/>
<path d="M154.608 32.9651C152.267 32.7221 151.367 34.8483 150.802 37.0778C150.392 36.9041 149.942 36.8463 149.501 36.9105C149.06 36.9748 148.646 37.1587 148.302 37.4423C147.469 38.077 146.836 38.9372 146.478 39.9208C144.253 39.2344 143.584 39.4531 142.404 39.8722C141.692 40.2041 141.03 40.6357 140.44 41.154C139.218 40.2124 137.726 39.6884 136.183 39.6596C135.674 39.6362 135.165 39.7247 134.693 39.9189C134.222 40.113 133.798 40.4082 133.453 40.7834C133.227 40.2714 132.893 39.8144 132.473 39.4441C132.053 39.0739 131.558 38.7992 131.021 38.639C130.1 38.338 129.108 38.338 128.187 38.639C128.194 38.2655 128.098 37.8972 127.908 37.5755C127.718 37.2537 127.442 36.9909 127.111 36.8166C125.712 36.2091 124.983 36.7497 124.107 36.4703C123.747 36.3691 123.421 36.1722 123.164 35.9004C122.907 35.6287 122.728 35.2923 122.648 34.9273C122.528 35.572 122.572 36.2363 122.775 36.8599C122.978 37.4834 123.334 38.0465 123.81 38.4979C124.286 38.9493 124.867 39.2748 125.501 39.4448C126.135 39.6147 126.801 39.6239 127.439 39.4713C126.74 41.2937 130.145 42.5087 131.41 41.6582C132.419 43.8756 135.855 44.8536 137.91 43.2559C139.127 45.8438 143.62 45.5826 144.703 43.3713C146.241 44.7868 148.752 45.2667 149.713 43.0676C151.191 43.5354 153.362 44.3372 154.316 42.2536C154.825 42.5633 155.41 42.724 156.006 42.7176C156.601 42.7112 157.183 42.5377 157.685 42.2171C158.761 41.5489 158.853 40.0605 159.181 38.8638C159.771 36.7801 157.655 31.8716 154.608 32.9651Z" fill="#1F4787"/>
<path d="M174.803 20.9672C174.803 20.9672 176.888 23.5126 176.092 30.2982C175.952 31.4768 176.633 33.6333 176.42 36.6343C175.94 43.4625 173.538 46.6882 170.042 47.7331C168.491 48.2009 165.821 47.9761 164.392 47.6906L163.784 52.3257C163.784 52.3257 171.081 59.567 164.003 60.5815C160.823 61.0432 157.01 59.2389 154.457 56.9366C152.803 55.3941 151.38 53.6224 150.23 51.6757L151.592 40.6377C151.592 40.6377 149.561 42.047 147.336 39.5806C144.904 36.8652 145.305 32.8558 147.5 31.574C150.723 29.6968 152.669 32.1814 153.265 33.7002C153.861 35.2189 155.66 35.5226 156.05 32.1693C156.104 31.4145 156.038 30.6559 155.855 29.9216C158.774 28.658 160.549 25.7724 159.291 21.356C164.575 23.9743 171.331 23.9743 174.803 20.9672Z" fill="#FFBDA7"/>
<path d="M151.58 35.2068C151.588 35.4639 151.533 35.719 151.421 35.9506C151.308 36.1821 151.142 36.3833 150.936 36.5371C150.704 36.7083 150.432 36.8171 150.145 36.853C149.975 36.853 150.042 37.1325 150.218 37.9283L150.334 38.4386C150.368 38.5634 150.352 38.6966 150.29 38.81C150.227 38.9234 150.123 39.008 149.999 39.0461C149.875 39.0805 149.743 39.0655 149.629 39.0044C149.516 38.9432 149.431 38.8406 149.391 38.718L148.473 35.8082C148.331 35.3884 148.361 34.9297 148.556 34.5316C148.75 34.1336 149.094 33.8283 149.513 33.682C149.752 33.6128 150.003 33.5996 150.248 33.6433C150.493 33.687 150.724 33.7865 150.924 33.934C151.124 34.0815 151.287 34.273 151.401 34.4937C151.515 34.7145 151.576 34.9585 151.58 35.2068Z" fill="#FAFAFA"/>
<path d="M156.561 35.9114C156.713 37.0596 158.166 37.8129 159.808 37.6002C161.45 37.3876 162.66 36.282 162.514 35.1338C162.368 33.9857 160.908 33.2324 159.267 33.445C157.625 33.6576 156.39 34.7633 156.561 35.9114Z" fill="#F0997A"/>
<path d="M173.586 35.1703C173.586 36.3306 174.881 37.2965 176.541 37.333C178.201 37.3694 179.582 36.4703 179.582 35.31C179.582 34.1497 178.286 33.1838 176.632 33.1474C174.978 33.1109 173.635 34.0161 173.586 35.1703Z" fill="#F0997A"/>
<path d="M163.948 38.955L168.114 40.2428C168.041 40.5214 167.914 40.7826 167.738 41.0107C167.563 41.2389 167.343 41.4292 167.092 41.5705C166.841 41.7117 166.564 41.8009 166.278 41.8327C165.991 41.8645 165.702 41.8382 165.426 41.7555C164.864 41.5711 164.396 41.176 164.121 40.6535C163.845 40.1311 163.783 39.5221 163.948 38.955Z" fill="#B16668"/>
<path d="M163.766 27.9412L160.725 29.1561C160.634 28.9612 160.583 28.7497 160.576 28.5345C160.569 28.3193 160.607 28.1049 160.686 27.9047C160.765 27.7044 160.884 27.5224 161.036 27.3699C161.188 27.2174 161.37 27.0976 161.57 27.0178C161.985 26.8623 162.444 26.8713 162.852 27.043C163.26 27.2148 163.587 27.5361 163.766 27.9412Z" fill="#1F4787"/>
<path d="M171.762 27.9958L174.802 29.3322C174.898 29.1398 174.955 28.9297 174.967 28.7149C174.98 28.5 174.948 28.2849 174.875 28.0826C174.802 27.8802 174.688 27.6949 174.54 27.538C174.393 27.381 174.215 27.2557 174.018 27.1696C173.608 26.9877 173.143 26.9723 172.722 27.1265C172.301 27.2807 171.957 27.5924 171.762 27.9958Z" fill="#1F4787"/>
<path d="M167.992 29.9034V37.3634L172.364 36.2335L167.992 29.9034Z" fill="#F0997A"/>
<path d="M164.374 47.6663C162.489 47.2835 157.806 45.6858 155.569 44.0213C154.353 43.1222 153.471 41.2147 153.197 40.3764C153.197 40.3764 153.307 43.748 155.058 45.3396C157.843 47.8606 164.112 49.7317 164.112 49.7317L164.374 47.6663Z" fill="#F0997A"/>
<path d="M171.494 31.5315C171.516 31.8613 171.662 32.1705 171.904 32.3962C172.146 32.6219 172.465 32.7471 172.795 32.7464C173.118 32.7464 173.427 32.6184 173.655 32.3906C173.883 32.1627 174.012 31.8537 174.012 31.5315C173.991 31.2021 173.846 30.893 173.605 30.6671C173.365 30.4413 173.047 30.3159 172.716 30.3165C172.556 30.3157 172.397 30.3465 172.249 30.4072C172.101 30.4679 171.966 30.5573 171.852 30.6702C171.739 30.7831 171.649 30.9173 171.587 31.0651C171.526 31.2129 171.494 31.3714 171.494 31.5315Z" fill="#1F4787"/>
<path d="M161.942 31.4524C161.907 31.7862 162.003 32.1206 162.209 32.3856C162.415 32.6506 162.716 32.8255 163.049 32.8739C163.211 32.8996 163.376 32.8924 163.535 32.8527C163.694 32.813 163.843 32.7416 163.973 32.6429C164.104 32.5442 164.213 32.4202 164.295 32.2782C164.376 32.1363 164.428 31.9794 164.447 31.8169C164.482 31.483 164.387 31.1486 164.18 30.8837C163.974 30.6187 163.673 30.4437 163.341 30.3954C163.179 30.3697 163.014 30.3769 162.855 30.4166C162.696 30.4563 162.547 30.5276 162.416 30.6263C162.285 30.7251 162.176 30.8491 162.095 30.9911C162.013 31.133 161.961 31.2899 161.942 31.4524Z" fill="#1F4787"/>
<path d="M163.942 40.1638C164.112 40.1519 164.283 40.1519 164.453 40.1638C164.92 40.2358 165.364 40.4141 165.75 40.6848C166.137 40.9555 166.457 41.3114 166.684 41.725C166.275 41.8557 165.835 41.8557 165.426 41.725C165.066 41.6116 164.741 41.4088 164.482 41.1358C164.222 40.8627 164.037 40.5282 163.942 40.1638Z" fill="#F28F8F"/>
</g>
<g clip-path="url(#clip1_88_414)">
<path d="M52.4308 16.1329C51.662 16.243 50.8798 16.0634 50.2355 15.6289C49.5911 15.1944 49.1304 14.5359 48.9424 13.7806C48.7545 13.0254 48.8526 12.2271 49.2178 11.5402C49.583 10.8532 50.1894 10.3264 50.9197 10.0617C50.4271 9.58373 50.097 8.96254 49.9762 8.28611C49.8554 7.60967 49.95 6.91228 50.2466 6.29273C50.5432 5.67319 51.0268 5.16289 51.6288 4.83413C52.2309 4.50536 52.9209 4.37481 53.6011 4.46095C53.6084 3.78443 53.7906 3.12137 54.13 2.53653C54.4693 1.95169 54.9542 1.46506 55.5372 1.12416C56.1203 0.783259 56.7816 0.599743 57.4565 0.591533C58.1315 0.583323 58.797 0.750698 59.3881 1.07732C60.1295 0.433156 61.0645 0.0559709 62.0444 0.00575366C63.0242 -0.0444636 63.9927 0.23517 64.7958 0.80018C65.4492 0.660159 66.1301 0.733731 66.7388 1.0101C67.3474 1.28647 67.8516 1.75109 68.1774 2.33577C68.5032 2.92046 68.6335 3.59442 68.5491 4.25877C68.4648 4.92312 68.1702 5.54288 67.7086 6.02709" fill="#1F4787"/>
<path d="M65.5613 3.88733H64.8732C61.5323 3.99665 58.3546 5.362 55.972 7.712C53.5893 10.062 52.1761 13.2246 52.0131 16.5711C51.6916 23.0162 51.428 30.1766 51.5759 33.6311C51.8845 40.7851 59.0669 41.6745 59.0669 41.6745L58.7325 50.2979L76.0487 49.2152L76.6081 17.9697C76.9939 10.5386 73.0073 4.08712 65.5613 3.88733Z" fill="#FFBF9D"/>
<path d="M58.9895 41.6874C62.3066 41.587 65.525 40.5333 68.2616 38.6518C68.2616 38.6518 66.114 44.1365 58.9702 43.7111L58.9895 41.6874Z" fill="#FF9A6C"/>
<path d="M55.0801 22.9581C55.0784 23.2305 55.1843 23.4925 55.3746 23.6869C55.5649 23.8813 55.8243 23.9924 56.096 23.9958C56.226 24.0018 56.3558 23.9818 56.478 23.9369C56.6001 23.892 56.7121 23.8231 56.8073 23.7343C56.9025 23.6454 56.9791 23.5384 57.0325 23.4195C57.0859 23.3006 57.1151 23.1723 57.1184 23.0419C57.1134 22.7746 57.0044 22.5199 56.8145 22.332C56.6247 22.1442 56.3692 22.0381 56.1025 22.0365C55.8457 22.0258 55.595 22.1163 55.404 22.2886C55.2129 22.4608 55.0967 22.7011 55.0801 22.9581Z" fill="#1F4787"/>
<path d="M53.6333 20.045C53.7683 20.1739 54.5207 19.5745 55.6202 19.5423C56.7197 19.51 57.5492 20.0385 57.6521 19.9032C57.755 19.7678 57.5749 19.6003 57.2149 19.3554C56.7295 19.0412 56.1588 18.8859 55.5816 18.9106C55.0104 18.925 54.4586 19.1214 54.0063 19.4714C53.6783 19.7421 53.569 19.987 53.6333 20.045Z" fill="#1F4787"/>
<path d="M64.7769 22.7068C64.7819 22.9735 64.8912 23.2275 65.0812 23.4144C65.2711 23.6012 65.5267 23.7058 65.7928 23.7057C65.9228 23.7118 66.0526 23.6918 66.1747 23.6469C66.2969 23.602 66.4088 23.5331 66.504 23.4442C66.5993 23.3554 66.6758 23.2484 66.7293 23.1295C66.7827 23.0106 66.8119 22.8822 66.8152 22.7519C66.8085 22.4857 66.6987 22.2326 66.5091 22.0461C66.3195 21.8597 66.0649 21.7545 65.7992 21.7529C65.6691 21.746 65.5389 21.7654 65.4163 21.8099C65.2938 21.8545 65.1815 21.9234 65.0861 22.0124C64.9907 22.1014 64.9141 22.2087 64.861 22.328C64.8079 22.4473 64.7793 22.5761 64.7769 22.7068Z" fill="#1F4787"/>
<path d="M64.4297 19.9097C64.5647 20.0386 65.317 19.4457 66.4166 19.4134C67.5161 19.3812 68.3456 19.9033 68.4485 19.7679C68.5514 19.6326 68.3713 19.4714 68.0112 19.2265C67.5266 18.9101 66.9559 18.7525 66.378 18.7754C65.8073 18.7927 65.2564 18.9888 64.8026 19.3361C64.4747 19.6068 64.3654 19.8517 64.4297 19.9097Z" fill="#1F4787"/>
<path d="M60.6996 28.198C60.1136 28.0304 59.5084 27.9394 58.8992 27.9273C58.6163 27.9273 58.3462 27.8628 58.2947 27.6695C58.2649 27.3804 58.3208 27.089 58.4555 26.8316L59.2335 24.6403C60.2881 21.5596 61.0404 19.0267 60.9182 18.9881C60.796 18.9494 59.838 21.4114 58.7834 24.4921C58.5262 25.2526 58.2819 25.9745 58.0568 26.6705C57.8901 27.0151 57.8491 27.4074 57.9411 27.7791C57.9864 27.8758 58.0526 27.9613 58.1349 28.0293C58.2172 28.0973 58.3135 28.1461 58.4169 28.1722C58.5728 28.2091 58.7326 28.2264 58.8927 28.2238C59.4938 28.2887 60.1006 28.2801 60.6996 28.198Z" fill="#1F4787"/>
<path d="M63.3488 15.7074C63.4967 15.9846 64.429 15.6494 65.5864 15.5785C66.7438 15.5076 67.7276 15.6623 67.8241 15.3723C67.8627 15.2305 67.6505 14.9856 67.2261 14.7793C66.6808 14.5224 66.0776 14.4134 65.4771 14.4635C64.8835 14.5054 64.3113 14.7032 63.8182 15.0371C63.4388 15.3078 63.278 15.5785 63.3488 15.7074Z" fill="#1F4787"/>
<path d="M53.44 15.5078C53.678 15.7527 54.5782 15.4626 55.6648 15.4175C56.7515 15.3724 57.6839 15.5207 57.8896 15.2564C57.9732 15.1275 57.8253 14.8826 57.4138 14.657C56.8482 14.3758 56.2172 14.2533 55.5877 14.3025C54.9626 14.3263 54.3558 14.5202 53.8323 14.8633C53.4529 15.1275 53.3372 15.3918 53.44 15.5078Z" fill="#1F4787"/>
<path d="M52.5722 13.2841C52.5722 13.2841 54.3212 8.77262 56.4302 7.63185C59.0022 6.2784 60.2175 9.12065 62.6802 8.3408C65.143 7.56095 67.6057 6.27195 70.2034 8.12167C73.0583 10.1454 71.7981 11.6664 72.0681 14.8374C73.1677 27.6952 75.6304 31.2657 76.1062 25.1494C76.1576 24.5049 77.9838 23.8991 78.1702 21.0826C78.4082 17.4283 78.4082 13.0006 77.5272 10.4419C76.7749 8.28924 75.4889 6.81978 73.2127 5.2343C69.6247 2.72074 64.8086 2.81742 61.5421 3.24924C58.2756 3.68105 52.1028 7.68341 52.5722 13.2841Z" fill="#1F4787"/>
<path d="M75.6565 24.9948C75.6561 24.7314 75.7093 24.4707 75.813 24.2286C75.9167 23.9866 76.0687 23.7684 76.2596 23.5873C76.4504 23.4063 76.6762 23.2662 76.923 23.1758C77.1698 23.0853 77.4324 23.0463 77.6948 23.0613C79.0323 23.1515 80.5369 23.8605 80.5369 26.6189C80.5369 31.5236 75.6243 30.4859 75.6179 30.3699C75.6115 30.2539 75.6179 27.0443 75.6565 24.9948Z" fill="#FFBF9D"/>
<path d="M76.6792 28.5072C76.6792 28.5072 76.7692 28.5653 76.9106 28.6297C77.1167 28.7142 77.3476 28.7142 77.5536 28.6297C78.068 28.4428 78.5053 27.6178 78.531 26.7349C78.5424 26.3162 78.4612 25.9002 78.2931 25.5168C78.2466 25.3649 78.1636 25.2267 78.0515 25.1144C77.9394 25.002 77.8016 24.9189 77.6501 24.8723C77.5526 24.8472 77.4495 24.8566 77.3581 24.8988C77.2668 24.9411 77.1928 25.0137 77.1486 25.1043C77.0843 25.2461 77.1164 25.3427 77.0907 25.3492C77.065 25.3556 76.9814 25.2654 77.0199 25.0656C77.0532 24.946 77.1202 24.8386 77.2129 24.7562C77.3508 24.6576 77.5204 24.6139 77.6887 24.6338C77.8889 24.6746 78.0754 24.7658 78.2306 24.8989C78.3859 25.0319 78.5048 25.2024 78.576 25.3943C78.7836 25.819 78.8851 26.2879 78.8718 26.7606C78.8397 27.7467 78.3317 28.6942 77.6244 28.8746C77.4933 28.9128 77.3554 28.921 77.2208 28.8987C77.0861 28.8764 76.9582 28.8241 76.8463 28.7457C76.692 28.6361 76.6663 28.5072 76.6792 28.5072Z" fill="#FF9A6C"/>
<path d="M75.2639 15.5142C74.681 16.0217 73.98 16.3741 73.2256 16.5389C72.8473 16.6068 72.4574 16.5361 72.1268 16.3397C71.7963 16.1433 71.5472 15.8343 71.4252 15.4691C71.3609 15.1339 71.4252 14.7343 71.2001 14.4765C70.9751 14.2187 70.4285 14.2832 70.0234 14.3412C68.6088 14.5345 66.8984 13.0522 66.4933 11.6407C66.3143 11.9094 66.0412 12.1009 65.728 12.1773C65.4148 12.2537 65.0844 12.2094 64.8022 12.0532C64.3451 11.7868 63.9364 11.4446 63.5934 11.0413C63.3951 10.7803 63.1363 10.5716 62.8393 10.4335C62.5424 10.2953 62.2163 10.2319 61.8894 10.2486C61.5495 10.3794 61.1956 10.4702 60.8349 10.5193C60.1919 10.4806 59.8575 9.73944 59.7418 9.10783C59.626 8.47621 59.5231 7.72859 58.9702 7.39989C58.4172 7.0712 57.8127 7.29677 57.2212 7.39989C56.6296 7.50301 55.8709 7.39989 55.6973 6.8134C55.6685 6.65871 55.6708 6.49984 55.7039 6.34604C55.737 6.19223 55.8003 6.04657 55.8902 5.91754C56.2743 5.31969 56.8471 4.86795 57.5172 4.63433C58.1872 4.40072 58.9161 4.39868 59.5874 4.62854C59.8047 3.80802 60.2592 3.07021 60.8937 2.50787C61.5282 1.94553 62.3144 1.58376 63.1535 1.46804C63.9925 1.35233 64.847 1.48783 65.6094 1.85752C66.3718 2.2272 67.0082 2.81457 67.4385 3.54577C67.9425 3.05844 68.5564 2.70017 69.228 2.50138C69.8996 2.3026 70.6092 2.26915 71.2965 2.40389C71.9837 2.53862 72.6284 2.83757 73.1758 3.27534C73.7232 3.71312 74.1572 4.27681 74.4409 4.91856C75.0375 4.73601 75.6748 4.73511 76.272 4.91597C76.8692 5.09683 77.3994 5.45131 77.7954 5.9345C78.1913 6.41768 78.4353 7.00781 78.4963 7.63011C78.5573 8.25241 78.4327 8.87886 78.1382 9.43008C78.5963 9.64113 78.9942 9.96421 79.2954 10.3696C79.5965 10.775 79.7911 11.2498 79.8614 11.7503C79.9129 12.7622 78.9612 13.8062 77.9774 13.5678C78.195 13.9616 78.2531 14.4243 78.1397 14.8599C78.0262 15.2955 77.7499 15.6707 77.368 15.9077C76.9861 16.1447 76.5278 16.2253 76.0882 16.1328C75.6486 16.0404 75.2614 15.7819 75.0067 15.4111" fill="#1F4787"/>
<path d="M59.2661 6.05933C59.2661 6.05933 59.2661 6.05933 59.2661 6.14956C59.2735 6.23836 59.2864 6.32661 59.3047 6.4138C59.3818 6.74222 59.5122 7.05573 59.6905 7.34189C59.9763 7.80041 60.3663 8.18468 60.8286 8.46332C61.4267 8.85281 62.1369 9.03192 62.8476 8.97248L62.7576 8.86936C62.6278 9.31968 62.6786 9.80301 62.8991 10.2164C63.1322 10.6498 63.4268 11.047 63.7736 11.3958C63.9414 11.5969 64.1312 11.7785 64.3394 11.9372C64.5729 12.0885 64.8403 12.1793 65.1175 12.2014C65.4098 12.2315 65.705 12.1884 65.9766 12.0759C66.2482 11.9634 66.4877 11.7851 66.6735 11.5569L66.4935 11.5118C66.5759 12.0175 66.7632 12.5002 67.0434 12.9288C67.3237 13.3573 67.6905 13.7221 68.1203 13.9996C68.5953 14.3289 69.1635 14.4962 69.7407 14.4765C70.284 14.4344 70.8165 14.3016 71.316 14.0834L71.181 14.0254C71.4536 14.6241 71.8741 15.1432 72.4027 15.5335C72.6402 15.726 72.9176 15.863 73.2146 15.9344C73.5116 16.0057 73.8208 16.0097 74.1195 15.946C74.6295 15.8186 75.0911 15.5445 75.4475 15.1574C75.804 14.7703 76.0397 14.2872 76.1257 13.7676L76.0164 13.8256C76.5385 14.0841 77.1342 14.1525 77.7011 14.0189C78.1248 13.9294 78.52 13.7368 78.8521 13.4582C79.0663 13.2782 79.2452 13.0596 79.3793 12.8137C79.4296 12.7335 79.4686 12.6468 79.4951 12.5559C79.3146 12.8647 79.0792 13.1377 78.8006 13.3615C78.47 13.6165 78.0848 13.7908 77.6754 13.8707C77.1373 13.9849 76.5764 13.9098 76.0871 13.658L75.9907 13.6129V13.716C75.8966 14.2025 75.6646 14.6516 75.3225 15.0093C74.9804 15.3671 74.5426 15.6185 74.0617 15.7333C73.7895 15.7889 73.5083 15.7825 73.2389 15.7145C72.9696 15.6464 72.7189 15.5185 72.5056 15.3402C72.0186 14.9751 71.6298 14.4945 71.3739 13.9416L71.3353 13.8514L71.2453 13.89C70.7679 14.0972 70.2594 14.2236 69.7407 14.2638C69.207 14.2849 68.6811 14.131 68.2425 13.8256C67.8368 13.5619 67.4901 13.2167 67.2244 12.8118C66.9588 12.4068 66.78 11.951 66.6993 11.4731V11.2476L66.5514 11.428C66.3823 11.6225 66.1689 11.7732 65.9294 11.8674C65.6899 11.9617 65.4312 11.9966 65.1753 11.9694C64.912 11.9619 64.6551 11.8864 64.4294 11.7503C64.2382 11.5975 64.0617 11.427 63.9022 11.2411C63.5644 10.9084 63.2764 10.5285 63.047 10.1132C62.9435 9.92992 62.8778 9.72771 62.8535 9.51852C62.8292 9.30932 62.8469 9.09737 62.9055 8.89514L62.9377 8.77268H62.8155C62.1398 8.8369 61.4618 8.67607 60.8865 8.31508C60.4416 8.05039 60.0615 7.68923 59.7741 7.2581C59.5401 6.88926 59.3684 6.48422 59.2661 6.05933Z" fill="#455A64"/>
<path d="M61.0605 31.9554C61.0605 31.7685 62.2887 31.9554 63.3303 31.0982C64.372 30.241 64.4749 28.9004 64.6164 28.9262C64.7578 28.952 64.8028 29.2549 64.7192 29.8027C64.6026 30.514 64.2408 31.1616 63.6969 31.6331C63.172 32.0867 62.4918 32.3178 61.8 32.2776C61.3113 32.2261 61.0412 32.0327 61.0605 31.9554Z" fill="#1F4787"/>
<path d="M7.32359 47.9841L0.019043 52.2121V60.6615L7.32359 64.883L14.6217 60.6615V52.2121L7.32359 47.9841Z" fill="#455A64"/>
<path d="M7.30454 50.2141L0 54.442V62.8915L7.30454 67.113L14.6027 62.8915V54.442L7.30454 50.2141Z" fill="#1F4787"/>
<path d="M30.5355 78.6559L37.6085 66.3653L47.5944 79.2553C47.5944 79.2553 38.5087 95.3678 35.0172 97.4625C30.574 100.111 27.5455 98.5001 23.6875 94.0659C21.3276 91.3526 9.02692 69.1495 7.6123 65.7079L15.1933 65.0634L30.5355 78.6559Z" fill="#FFBF9D"/>
<path d="M10.2944 55.8858C10.2944 55.8858 10.6159 53.8105 12.0048 54.919C13.3937 56.0276 13.9338 59.4305 14.744 60.6809C15.5542 61.9312 17.4897 64.4448 18.0041 68.5116C18.5185 72.5784 17.3225 73.5129 17.3225 73.5129L13.8374 69.7877L10.2944 55.8858Z" fill="#FFBF9D"/>
<path d="M1.72982 64.1869C1.16425 63.7363 0.785452 63.0915 0.666681 62.3773C0.547911 61.663 0.697602 60.9299 1.08681 60.3199V60.2747C2.78928 58.2121 4.70787 56.3388 6.80957 54.6869C7.62618 54.2164 9.80597 55.4925 9.80597 55.4925C10.2505 55.4645 10.6948 55.549 11.0982 55.7382C11.5016 55.9274 11.851 56.2153 12.1144 56.5753C12.7869 57.5606 13.2951 58.649 13.619 59.7978C13.8865 60.0683 14.0701 60.4107 14.1477 60.7835C14.2253 61.1564 14.1936 61.5438 14.0562 61.8989C13.6704 63.3361 5.99938 68.9884 5.99938 68.9884C5.99938 68.9884 2.93867 67.6994 3.06727 66.3717C2.7735 66.1817 2.53535 65.9169 2.37719 65.6043C2.21902 65.2918 2.1465 64.9428 2.16706 64.5929L1.72982 64.1869Z" fill="#FFBF9D"/>
<path d="M13.6062 59.9074L6.30811 64.1353V72.5848L13.6062 76.8063L20.9108 72.5848V64.1353L13.6062 59.9074Z" fill="#455A64"/>
<path d="M13.6766 62.1375L6.37207 66.3589V74.8084L13.6766 79.0363L20.9747 74.8084V66.3589L13.6766 62.1375Z" fill="#1F4787"/>
<path d="M29.9642 86.7188C29.7108 85.3805 29.6631 84.0112 29.8227 82.6584C29.8675 81.2952 30.1146 79.9463 30.5558 78.6561C30.6522 78.6561 30.3114 80.4607 30.1571 82.6842C30.0028 84.9077 30.0414 86.7123 29.9642 86.7188Z" fill="#FF9A6C"/>
<path d="M13.5542 59.8945C13.5144 59.6383 13.4607 59.3844 13.3935 59.134C13.2959 58.8851 13.1392 58.6639 12.937 58.4895C12.8222 58.3797 12.6832 58.2985 12.5312 58.2526C12.3793 58.2067 12.2187 58.1973 12.0625 58.2253L11.8503 58.2704V58.0577C11.8661 57.9013 11.8661 57.7436 11.8503 57.5872C11.792 57.2256 11.6507 56.8826 11.4375 56.5851C11.2244 56.2876 10.9453 56.0438 10.6221 55.8728C10.1206 55.6021 9.74121 55.5828 9.74764 55.5312C9.75407 55.4797 10.1399 55.4217 10.725 55.6601C11.1067 55.8225 11.4407 56.0801 11.695 56.4084C11.9494 56.7367 12.1157 57.1247 12.1782 57.5356C12.2003 57.7133 12.2003 57.893 12.1782 58.0706L11.9789 57.903C12.1856 57.867 12.398 57.8822 12.5975 57.9474C12.797 58.0125 12.9775 58.1257 13.1234 58.2768C13.3511 58.5019 13.5134 58.7849 13.5928 59.0953C13.7343 59.5981 13.58 59.9139 13.5542 59.8945Z" fill="#FF9A6C"/>
<path d="M7.82568 60.9322C8.28515 60.1938 8.8981 59.5634 9.6227 59.084C10.3473 58.6047 11.1665 58.2876 12.0245 58.1544C12.0567 58.251 10.9571 58.5991 9.80614 59.3789C8.65516 60.1588 7.90284 60.9966 7.82568 60.9322Z" fill="#FF9A6C"/>
<path d="M4.771 59.1147C5.9591 57.3306 7.77575 56.0622 9.85717 55.5635C9.85717 55.6602 8.57116 56.1435 7.16941 57.1296C5.76766 58.1157 4.84816 59.1791 4.771 59.1147Z" fill="#FF9A6C"/>
<path d="M95.0754 191.869L89.3269 136.539L87.1664 120.426L41.0693 124.139C39.723 130.293 39.2318 136.604 39.6097 142.894C39.6419 143.802 40.5614 171 41.6159 178.541C42.6897 186.211 44.5737 197.953 45.924 202.652C47.3515 207.595 47.9173 224.429 48.0266 228.838C48.0909 231.235 48.4768 237.958 49.7821 242.121C50.1409 243.271 50.8311 244.29 51.7659 245.048C52.7006 245.806 53.8382 246.27 55.0354 246.381L55.5884 249.997L69.4773 248.205L63.9989 148.398C63.9668 147.753 64.8027 147.721 65.4457 147.592C65.567 147.569 65.6918 147.575 65.8109 147.607C65.93 147.639 66.0403 147.698 66.1337 147.779C67.8827 162.248 72.2165 202.014 73.2582 204.92C74.6857 208.891 77.5599 234.948 79.7976 240.897C81.5208 245.473 86.2276 247.516 86.2276 247.516L86.4141 250.435L98.8755 249.591L95.0754 191.869Z" fill="#1F4787"/>
<path d="M39.6087 142.919C39.5444 142.281 39.6087 142.881 39.6087 142.919V142.919Z" fill="#1F4787"/>
<path d="M88.0536 121.96L86.954 118.66L91.4551 56.382L91.3715 50.2528L76.1194 43.8851C68.5705 48.9767 63.375 52.5601 58.411 48.1324C58.411 48.1324 44.6828 52.2508 43.7762 53.7653C42.4323 56.0147 42.5481 81.0213 42.5481 81.0213L41.1656 103.321L39.6738 126.078L38.6836 129.797L88.06 126.794L88.3043 125.505C88.5223 124.321 88.436 123.101 88.0536 121.96Z" fill="#A69E9D"/>
<g opacity="0.3">
<path d="M80.8391 69.1624C80.6583 74.7278 81.0266 80.2976 81.9387 85.7905C82.2245 87.9751 82.8176 90.1082 83.7005 92.126C84.599 94.1525 86.1686 95.8055 88.1437 96.805L90.1692 87.2471L80.8391 69.1624Z" fill="black"/>
</g>
<path d="M84.0986 53.7717C84.0986 53.7717 92.2134 55.2605 94.6889 60.7259C97.1645 66.1913 100.013 82.046 100.026 87.679C100.039 93.3119 101.415 97.7074 102.624 101.98C103.832 106.254 103.016 131.55 103.119 131.969C103.222 132.388 96.1936 131.247 96.1936 131.247C96.1936 131.247 90.683 113.942 90.2715 107.723C89.86 101.504 89.1205 95.6579 89.1205 95.6579L84.2529 79.5131L84.0986 53.7717Z" fill="#FFBF9D"/>
<path d="M102.624 127.915C102.624 127.915 104.019 142.739 104 144.137C103.981 145.536 100.733 153.334 100.733 153.334L94.2647 157.247C94.2647 157.247 93.461 156.853 94.1811 155.242C94.7607 154.067 95.4843 152.97 96.3352 151.975V144.788L95.8658 142.713L94.7341 145.291C94.7341 145.291 94.8434 150.022 93.6796 151.13C93.5585 151.2 93.422 151.238 93.2826 151.241C93.1431 151.244 93.005 151.212 92.881 151.148C92.757 151.084 92.651 150.99 92.5726 150.874C92.4942 150.758 92.4459 150.625 92.4321 150.486C92.0327 147.881 91.9184 145.24 92.0914 142.61C92.3743 140.406 92.7922 137.054 94.6955 135.295C96.5988 133.535 95.9816 130.397 95.5379 128.818C95.0942 127.239 102.624 127.915 102.624 127.915Z" fill="#FFBF9D"/>
<path d="M79.8033 64.8056C79.8804 65.8175 83.3527 81.176 83.3527 81.176L102.746 75.1628C102.746 75.1628 98.4762 60.9837 97.6017 58.5991C96.4014 55.2564 94.2204 52.3559 91.3452 50.2785C91.3452 50.2785 78.5687 47.8423 79.8033 64.8056Z" fill="#A69E9D"/>
<path d="M43.7374 85.5651L30.0864 75.4851C30.0864 75.4851 37.5646 60.3715 40.7024 56.15C43.8403 51.9286 50.2575 50.9167 50.2575 50.9167L50.7783 61.5896L43.7374 85.5651Z" fill="#A69E9D"/>
<path d="M43.7763 64.1226C43.7917 64.2704 43.7917 64.4194 43.7763 64.5673C43.7763 64.896 43.7441 65.3149 43.7184 65.8563C43.6477 66.997 43.5577 68.5825 43.4419 70.5289C43.1719 74.5055 42.7989 79.9322 42.4002 85.9325C42.0016 91.9328 41.5386 97.3466 41.275 101.336C41.1142 103.27 40.9856 104.868 40.8892 106.009C40.8377 106.531 40.7992 106.956 40.767 107.298C40.7647 107.446 40.7431 107.593 40.7027 107.736C40.6857 107.59 40.6857 107.443 40.7027 107.298C40.7027 106.969 40.7349 106.55 40.7606 106.009C40.8249 104.862 40.9213 103.276 41.0371 101.336C41.3071 97.3595 41.6801 91.9264 42.0723 85.9196C42.4646 79.9129 42.9147 74.4926 43.2104 70.5096C43.3712 68.5761 43.4998 66.9841 43.5962 65.8434C43.6412 65.3213 43.6863 64.9024 43.712 64.5544C43.7228 64.4091 43.7443 64.2647 43.7763 64.1226Z" fill="#1F4787"/>
<path d="M79.9512 65.6693C79.9973 65.763 80.0297 65.8628 80.0476 65.9657C80.1055 66.1977 80.1826 66.4878 80.2662 66.8358C80.4591 67.6414 80.7163 68.7371 81.0314 70.0583C81.6744 72.8554 82.5103 76.6838 83.4813 81.0148L83.2691 80.8924L85.5775 80.1705L97.846 76.4002L101.582 75.2917L102.598 75.0081C102.716 74.9731 102.836 74.9472 102.958 74.9307C102.853 74.9971 102.738 75.0451 102.617 75.0725L101.62 75.4206L97.9167 76.6258L85.6996 80.4928L83.3848 81.2082L83.2112 81.2598L83.1726 81.0857C82.2467 76.7547 81.4301 72.9199 80.8321 70.1292C80.5556 68.7757 80.337 67.6736 80.1891 66.8616C80.1248 66.5071 80.0733 66.2171 80.0283 65.9786C79.9894 65.8793 79.9635 65.7753 79.9512 65.6693Z" fill="#1F4787"/>
<path d="M84.8386 121.264C84.7192 121.314 84.5939 121.349 84.4656 121.367L83.3854 121.593C82.4466 121.786 81.077 122.038 79.3859 122.328C75.9972 122.908 71.3033 123.617 66.0885 124.1C60.8738 124.583 56.1284 124.867 52.6947 124.964C50.9779 125.009 49.589 125.034 48.6309 125.028H47.525C47.3968 125.043 47.2673 125.043 47.1392 125.028C47.2656 124.998 47.3951 124.983 47.525 124.983L48.6309 124.931L52.6883 124.764C56.1155 124.609 60.8416 124.319 66.0564 123.803C71.2712 123.288 75.9587 122.65 79.3473 122.134L83.3597 121.49L84.4528 121.329C84.5779 121.29 84.7077 121.268 84.8386 121.264Z" fill="#1F4787"/>
</g>
<defs>
<clipPath id="clip0_88_414">
<rect width="114" height="156" fill="white" transform="translate(99 11)"/>
</clipPath>
<clipPath id="clip1_88_414">
<rect width="104" height="167" fill="white"/>
</clipPath>
</defs>
</svg>
