<svg width="170" height="174" viewBox="0 0 170 174" fill="none" xmlns="http://www.w3.org/2000/svg">
<path d="M58.5953 19.5924C59.5948 19.6619 60.5843 19.3563 61.3706 18.7352C62.1568 18.1142 62.6833 17.2224 62.8472 16.234C63.0111 15.2456 62.8007 14.2316 62.257 13.39C61.7133 12.5485 60.8754 11.9398 59.907 11.6829C60.4891 11.0227 60.8484 10.196 60.934 9.32C61.0195 8.44403 60.8269 7.56336 60.3836 6.80302C59.9403 6.04269 59.2687 5.44132 58.4642 5.0843C57.6598 4.72727 56.7633 4.63273 55.902 4.8141C55.823 3.9494 55.5208 3.12002 55.0251 2.40714C54.5294 1.69426 53.857 1.12232 53.0739 0.747278C52.2908 0.372237 51.4237 0.206954 50.5575 0.26761C49.6913 0.328266 48.8557 0.612783 48.1325 1.09331C47.1177 0.348496 45.883 -0.0354548 44.6248 0.00257628C43.3666 0.0406074 42.1573 0.498432 41.1893 1.30317C40.3333 1.18332 39.4615 1.34331 38.7039 1.75927C37.9462 2.17524 37.3433 2.82491 36.9849 3.61146C36.6265 4.39801 36.5319 5.2793 36.7152 6.12399C36.8985 6.96867 37.3498 7.73151 38.002 8.2988" fill="#1F4787"/>
<path d="M40.5284 5.32133L41.4029 5.27761C45.6949 5.0637 49.91 6.47491 53.208 9.23C56.506 11.9851 58.6447 15.8817 59.198 20.1433C60.2736 28.3588 61.3535 37.4487 61.5197 41.8778C61.8607 51.0596 52.7752 52.9222 52.7752 52.9222L54.0868 63.8922L49.1855 69.2089L31.8189 64.3076L27.8839 24.485C26.5897 14.9971 31.0231 6.34881 40.5284 5.32133Z" fill="#FFBF9D"/>
<path d="M52.8546 52.8871C48.6075 53.0967 44.3894 52.0846 40.6997 49.9708C40.6997 49.9708 43.9658 56.3981 53.0688 55.117L52.8546 52.8871Z" fill="#131212"/>
<path d="M55.0409 29.8803C55.0604 30.2205 54.9468 30.555 54.724 30.8129C54.5012 31.0707 54.1868 31.2318 53.8473 31.2619C53.6817 31.2832 53.5134 31.2713 53.3525 31.2267C53.1915 31.1822 53.041 31.106 52.9099 31.0025C52.7788 30.8991 52.6697 30.7705 52.5889 30.6244C52.5081 30.4782 52.4573 30.3174 52.4394 30.1513C52.4187 29.8104 52.5319 29.4748 52.7548 29.2159C52.9777 28.9571 53.2928 28.7954 53.6331 28.7653C53.7991 28.7434 53.9679 28.7551 54.1294 28.7996C54.2908 28.8442 54.4417 28.9208 54.573 29.0247C54.7044 29.1287 54.8134 29.2581 54.8938 29.405C54.9742 29.552 55.0242 29.7136 55.0409 29.8803Z" fill="#1F4787"/>
<path d="M57.4593 24.7079C57.3062 24.8872 56.2787 24.2008 54.8709 24.2707C53.463 24.3407 52.4661 25.1014 52.3087 24.9353C52.23 24.861 52.3787 24.5462 52.8115 24.1964C53.3989 23.7434 54.1123 23.4837 54.8534 23.4531C55.5862 23.4139 56.3124 23.61 56.9258 24.0128C57.3762 24.3232 57.538 24.6292 57.4593 24.7079Z" fill="#1F4787"/>
<path d="M43.0084 30.1908C43.028 30.531 42.9143 30.8655 42.6915 31.1234C42.4687 31.3813 42.1543 31.5423 41.8148 31.5724C41.6488 31.5937 41.4803 31.5816 41.319 31.5368C41.1578 31.492 41.0072 31.4154 40.876 31.3115C40.7448 31.2077 40.6358 31.0786 40.5552 30.9319C40.4746 30.7852 40.4242 30.624 40.4069 30.4575C40.3874 30.1173 40.5011 29.7828 40.7239 29.5249C40.9467 29.267 41.2611 29.106 41.6006 29.0759C41.7666 29.054 41.9354 29.0656 42.0969 29.1102C42.2583 29.1548 42.4092 29.2313 42.5405 29.3353C42.6718 29.4393 42.7809 29.5686 42.8613 29.7156C42.9417 29.8625 42.9917 30.0241 43.0084 30.1908Z" fill="#1F4787"/>
<path d="M43.634 25.6568C43.481 25.836 42.4535 25.1539 41.0456 25.2195C39.6378 25.2851 38.6409 26.0459 38.4791 25.8797C38.4004 25.8098 38.5491 25.495 38.9863 25.1452C39.5732 24.6914 40.2869 24.4316 41.0281 24.4019C41.7605 24.3617 42.4865 24.5562 43.1006 24.9572C43.5466 25.2764 43.7127 25.5781 43.634 25.6568Z" fill="#1F4787"/>
<path d="M49.2654 35.8441C49.2654 35.7654 50.1399 35.5686 51.5302 35.3194C51.8888 35.2626 52.2254 35.1751 52.2735 34.9259C52.2827 34.5533 52.1807 34.1865 51.9806 33.8722C51.6002 32.9977 51.1979 32.1233 50.7826 31.1876C49.1124 27.3662 47.8838 24.2138 48.0368 24.1483C48.1898 24.0827 49.672 27.1258 51.3422 30.9515L52.4965 33.6536C52.7434 34.077 52.8347 34.5735 52.7545 35.0571C52.7068 35.186 52.6311 35.3027 52.5328 35.3987C52.4345 35.4947 52.3161 35.5677 52.1861 35.6123C51.9904 35.675 51.7878 35.7132 51.5827 35.726C50.1573 35.8747 49.2742 35.9228 49.2654 35.8441Z" fill="#1F4787"/>
<path d="M44.5874 20.1827C44.4212 20.5456 43.1926 20.2177 41.7061 20.2439C40.2195 20.2701 38.9822 20.5806 38.8248 20.2177C38.7592 20.0428 39.0084 19.7061 39.5287 19.3957C40.196 19.0188 40.9485 18.8187 41.7148 18.8142C42.4798 18.8024 43.2343 18.994 43.9009 19.3694C44.4256 19.6755 44.6617 20.0078 44.5874 20.1827Z" fill="#1F4787"/>
<path d="M57.2402 18.8973C56.9603 19.2339 55.7798 18.9585 54.3851 19.0153C52.9903 19.0722 51.8142 19.3564 51.5256 19.0153C51.3988 18.8579 51.5693 18.5256 52.0678 18.1977C52.7632 17.7862 53.5552 17.566 54.3632 17.5594C55.1676 17.526 55.9662 17.7087 56.6761 18.0884C57.1833 18.4163 57.3626 18.7355 57.2402 18.8973Z" fill="#1F4787"/>
<path d="M58.1192 15.9722C58.1192 15.9722 55.4171 10.3538 52.5839 9.15144C49.156 7.69548 47.8968 11.4469 44.6569 10.7123C41.4171 9.9778 38.1466 8.58304 35.0161 11.2064C31.5839 14.0834 33.3503 15.8978 33.3284 19.9509C33.2541 36.4737 30.4777 41.2832 29.236 33.5662C29.1004 32.718 26.7044 32.1583 26.1754 28.5818C25.4933 23.9472 25.0298 18.2982 25.9087 14.9403C26.6432 12.1115 28.1385 10.1046 30.8843 7.83976C35.2128 4.26762 41.3777 3.90472 45.6057 4.10147C49.8337 4.29822 58.1454 8.76668 58.1192 15.9722Z" fill="#1F4787"/>
<path d="M29.7954 33.3125C29.768 32.9767 29.6727 32.6499 29.5153 32.352C29.3578 32.0541 29.1415 31.7912 28.8795 31.5794C28.6174 31.3677 28.315 31.2113 27.9907 31.1199C27.6664 31.0285 27.3269 31.0039 26.9928 31.0477C25.2919 31.2969 23.4381 32.3593 23.7267 35.8878C24.2382 42.1401 30.4119 40.3344 30.4075 40.1551C30.4031 39.9758 30.0359 35.9271 29.7954 33.3125Z" fill="#FFBF9D"/>
<path d="M28.8549 37.9165C28.8243 37.9165 28.75 37.9996 28.5751 38.1002C28.325 38.232 28.0335 38.2618 27.7619 38.1833C27.0798 37.9952 26.4502 36.9896 26.319 35.866C26.2562 35.3319 26.3161 34.7906 26.4939 34.2832C26.5361 34.0825 26.6266 33.8951 26.7577 33.7374C26.8888 33.5797 27.0564 33.4564 27.2459 33.3781C27.3686 33.3358 27.5021 33.337 27.624 33.3816C27.7458 33.4262 27.8486 33.5114 27.9149 33.623C28.0111 33.7935 27.9805 33.9203 28.0154 33.929C28.0504 33.9378 28.1422 33.811 28.0679 33.5574C28.0219 33.4054 27.9245 33.274 27.7925 33.1858C27.6091 33.0703 27.3879 33.0311 27.176 33.0765C26.9233 33.1479 26.6932 33.2831 26.5079 33.4692C26.3226 33.6553 26.1883 33.8859 26.1179 34.1389C25.8948 34.7023 25.8137 35.3119 25.8818 35.9141C26.0261 37.1689 26.7562 38.2969 27.6919 38.4849C27.8641 38.5204 28.042 38.5165 28.2124 38.4733C28.3828 38.4301 28.5412 38.3489 28.6757 38.2357C28.8549 38.0652 28.8943 37.9253 28.8549 37.9165Z" fill="#131212"/>
<path d="M29.3319 21.1709C30.1714 21.6868 31.059 22.2158 32.0427 22.2639C33.0265 22.312 34.1196 21.6955 34.2289 20.7162C34.2813 20.2789 34.1502 19.7761 34.4212 19.4045C34.7448 18.9672 35.3788 19.0809 35.9078 19.1115C37.7398 19.2121 39.7641 17.0959 40.1402 15.3033C40.3956 15.6237 40.762 15.8365 41.1668 15.8997C41.5716 15.9628 41.9854 15.8717 42.3263 15.6443C42.8869 15.2608 43.3754 14.7812 43.7692 14.2277C44.2895 13.5719 45.0327 12.9729 45.8678 13.0472C46.3313 13.0909 46.7773 13.3445 47.2407 13.2789C48.0627 13.1652 48.4169 12.1815 48.5 11.3595C48.583 10.5375 48.6311 9.57999 49.3088 9.10341C49.9865 8.62684 50.7823 8.85419 51.543 8.92852C52.3038 9.00285 53.2919 8.7755 53.4319 8.02784C53.4546 7.82751 53.4365 7.62464 53.3787 7.4315C53.3208 7.23836 53.2244 7.05897 53.0952 6.90417C52.5497 6.17016 51.7727 5.64145 50.8898 5.40345C50.0068 5.16545 49.0693 5.23205 48.2288 5.59249C47.8647 4.56762 47.2052 3.67358 46.3334 3.02322C45.4616 2.37286 44.4168 1.99531 43.3306 1.93825C42.2445 1.88118 41.1658 2.14715 40.2307 2.70257C39.2956 3.258 38.546 4.078 38.0765 5.05907C37.3812 4.48886 36.5585 4.09488 35.6784 3.91059C34.7983 3.72629 33.8867 3.75712 33.021 4.00047C32.1553 4.24382 31.3612 4.69248 30.706 5.30837C30.0508 5.92426 29.5539 6.68917 29.2576 7.53814C28.4786 7.37214 27.6679 7.43961 26.927 7.73211C26.1862 8.02461 25.548 8.52914 25.0925 9.18254C24.637 9.83595 24.3843 10.6092 24.3661 11.4055C24.348 12.2018 24.5651 12.9858 24.9903 13.6593C23.8972 14.3589 22.9878 15.5263 23.0271 16.8248C23.0665 18.1234 24.3956 19.352 25.6505 18.9454C25.4252 19.4679 25.4069 20.0565 25.5994 20.592C25.7918 21.1275 26.1806 21.5698 26.687 21.8294C27.1933 22.089 27.7794 22.1464 28.3265 21.99C28.8737 21.8337 29.3409 21.4752 29.6336 20.9872" fill="#1F4787"/>
<path d="M48.8055 7.44183C48.8103 7.48103 48.8103 7.52069 48.8055 7.55989C48.8027 7.67249 48.7939 7.78487 48.7792 7.89655C48.7187 8.32545 48.5857 8.74091 48.3857 9.12516C48.0734 9.73509 47.6245 10.2648 47.0741 10.6729C46.3506 11.2342 45.4625 11.5415 44.5469 11.5474L44.6474 11.4031C44.8652 11.9685 44.8511 12.597 44.6081 13.152C44.3545 13.7279 44.0187 14.264 43.6112 14.7435C43.4157 15.0174 43.1931 15.2708 42.9466 15.4999C42.6606 15.7163 42.3258 15.8589 41.9716 15.9153C41.6051 15.9875 41.2265 15.9687 40.8689 15.8604C40.5114 15.7522 40.1859 15.5578 39.921 15.2944L40.1484 15.2157C40.094 15.8705 39.9033 16.5067 39.5886 17.0835C39.2739 17.6603 38.842 18.1649 38.3208 18.5649C37.7476 19.0353 37.0372 19.3068 36.2964 19.3388C35.5985 19.3415 34.9052 19.2262 34.2458 18.9977L34.412 18.9147C34.1253 19.6891 33.6487 20.3792 33.026 20.9215C32.7422 21.1926 32.4012 21.3966 32.0282 21.5184C31.6551 21.6402 31.2595 21.6768 30.8704 21.6255C30.2053 21.5159 29.5868 21.2141 29.0911 20.7572C28.5955 20.3004 28.2443 19.7085 28.0809 19.0546L28.2252 19.1158C27.5858 19.5034 26.8319 19.6579 26.0915 19.553C25.5406 19.4771 25.0151 19.2735 24.5569 18.9584C24.2691 18.7591 24.019 18.5104 23.818 18.2238C23.7455 18.1274 23.6866 18.0215 23.6431 17.909C23.9048 18.2853 24.2339 18.61 24.6137 18.8666C25.0641 19.1578 25.576 19.3404 26.109 19.4C26.8111 19.4882 27.5222 19.334 28.1246 18.9628L28.2383 18.8884L28.2689 19.0196C28.4307 19.6266 28.7644 20.1739 29.2297 20.5958C29.6951 21.0178 30.2724 21.2964 30.8923 21.3981C31.2466 21.4396 31.6057 21.4019 31.9437 21.2878C32.2817 21.1736 32.5901 20.9858 32.8467 20.7379C33.4336 20.2196 33.8841 19.565 34.1584 18.8316L34.1977 18.7135L34.3201 18.7529C34.9504 18.9696 35.6125 19.0789 36.2789 19.0764C36.9634 19.0464 37.6191 18.793 38.1459 18.355C38.6414 17.9799 39.0531 17.5053 39.3543 16.9616C39.6555 16.418 39.8396 15.8173 39.8948 15.1982L39.9167 14.9009L40.1221 15.1239C40.3577 15.3552 40.6459 15.5258 40.962 15.621C41.2781 15.7162 41.6125 15.7331 41.9366 15.6704C42.2538 15.6242 42.5544 15.4995 42.8111 15.3075C43.0463 15.0969 43.2575 14.8608 43.4407 14.6036C43.8373 14.1428 44.1657 13.6275 44.4157 13.0733C44.5281 12.8283 44.591 12.5635 44.6007 12.2942C44.6105 12.0248 44.5669 11.7562 44.4725 11.5037L44.4157 11.355H44.5731C45.446 11.3632 46.2978 11.087 46.9997 10.568C47.5406 10.1818 47.9887 9.67999 48.3114 9.09892C48.5717 8.5797 48.7389 8.01884 48.8055 7.44183Z" fill="#455A64"/>
<path d="M49.1958 40.6754C49.1477 40.4437 47.6261 40.846 46.2008 39.801C44.7754 38.756 44.5131 37.1164 44.2988 37.1776C44.1983 37.1776 44.0977 37.6149 44.2595 38.3101C44.4832 39.2047 45.014 39.9923 45.7592 40.5355C46.4775 41.0553 47.3687 41.2777 48.247 41.1564C48.8985 41.0471 49.2308 40.7804 49.1958 40.6754Z" fill="#1F4787"/>
<path d="M12.4556 173.339C12.4556 173.339 14.563 150.629 19.5037 143.52L78.8703 145.925L81.7997 172.84L12.4556 173.339Z" fill="#1F4787"/>
<path d="M31.1636 57.5523C31.1636 57.5523 32.3091 63.6211 47.6557 67.5299C47.6557 67.5299 54.6951 62.9608 53.2654 56.949L70.9993 67.543L75.2404 117.452L80.9243 152.601C63.3478 161.691 38.5134 159.535 14.8638 152.374L21.7326 130.661L21.1467 121.825L13.4253 74.9015L27.2504 61.0764L31.1636 57.5523Z" fill="#E0E0E0"/>
<path d="M64.0891 75.2064L58.6489 75.5687C57.9478 75.6153 57.4172 76.2216 57.4639 76.9227L57.466 76.9533C57.5127 77.6544 58.1189 78.1849 58.82 78.1382L64.2602 77.7759C64.9613 77.7293 65.4919 77.123 65.4452 76.4219L65.4431 76.3913C65.3964 75.6902 64.7902 75.1597 64.0891 75.2064Z" fill="#A69E9D"/>
<path d="M32.1869 108.542C32.1869 108.585 31.5355 108.415 30.473 108.362C29.851 108.335 29.2279 108.361 28.6104 108.441C27.8582 108.549 27.1176 108.726 26.3981 108.97C25.683 109.231 24.9948 109.561 24.3431 109.954C23.813 110.278 23.3127 110.648 22.8478 111.06C22.0564 111.768 21.6585 112.306 21.6235 112.276C21.6958 112.136 21.7838 112.006 21.8859 111.886C21.991 111.732 22.1079 111.586 22.2356 111.449C22.3937 111.266 22.5616 111.09 22.7385 110.925C23.1979 110.488 23.6987 110.097 24.2338 109.757C24.8941 109.348 25.5944 109.006 26.3237 108.738C27.0581 108.485 27.8173 108.311 28.5886 108.218C29.2171 108.146 29.8512 108.135 30.4818 108.188C30.7238 108.202 30.9647 108.231 31.2032 108.275C31.3849 108.298 31.5646 108.335 31.741 108.384C31.8965 108.415 32.0468 108.468 32.1869 108.542Z" fill="#131212"/>
<path d="M53.2661 56.9403C53.6071 56.9403 65.4385 60.2545 67.1961 60.7748C67.288 60.8054 71.9182 62.4144 72.0056 62.4275C73.09 62.5674 79.7271 65.0771 82.4117 71.0059C84.8383 76.3619 88.6202 88.9322 88.6202 88.9322L70.4579 87.2226L71.3061 75.9159L55.7933 62.0121L53.2661 56.9403Z" fill="#E0E0E0"/>
<path d="M70.379 73.4062C70.4314 73.5916 70.4637 73.7822 70.4752 73.9746C70.5233 74.3462 70.5758 74.884 70.6239 75.5486C70.7288 76.8603 70.8075 78.7185 70.7681 80.7516C70.7288 82.7847 70.5758 84.6254 70.4227 85.9502C70.344 86.6104 70.2697 87.1482 70.2085 87.5155C70.1903 87.7069 70.1522 87.896 70.0948 88.0795C70.0832 87.8868 70.092 87.6933 70.121 87.5024C70.1604 87.087 70.2041 86.5623 70.2609 85.9327C70.3746 84.6211 70.5014 82.776 70.5408 80.7472C70.5801 78.7185 70.5408 76.8865 70.4665 75.5573C70.4315 74.9277 70.4053 74.3987 70.3878 73.9833C70.3657 73.7917 70.3628 73.5984 70.379 73.4062Z" fill="#1F4787"/>
<path d="M71.8036 63.1358C71.7314 63.5208 71.6335 63.9006 71.5106 64.2726C71.0083 66.0882 70.7049 67.953 70.6056 69.8341C70.6049 70.2263 70.5757 70.6179 70.5181 71.0059C70.4476 70.6181 70.4227 70.2233 70.4438 69.8297C70.4519 67.9263 70.7603 66.0361 71.3576 64.2289C71.4623 63.8481 71.612 63.4811 71.8036 63.1358Z" fill="#1F4787"/>
<path d="M66.7113 79.9034L33.9193 81.7485C33.4767 81.7734 33.0613 81.9701 32.7615 82.2968C32.4618 82.6235 32.3015 83.0543 32.3147 83.4974L33.4384 128.226C33.4467 128.539 33.5177 128.847 33.6473 129.132C33.7768 129.417 33.9623 129.673 34.1927 129.885C34.423 130.097 34.6936 130.261 34.9884 130.366C35.2832 130.472 35.5961 130.517 35.9087 130.499L67.9968 128.676C68.6045 128.638 69.1732 128.363 69.5816 127.912C69.99 127.46 70.2058 126.867 70.1829 126.258L68.5958 81.6217C68.588 81.3841 68.5327 81.1505 68.4332 80.9346C68.3337 80.7188 68.1919 80.525 68.0162 80.3649C67.8406 80.2047 67.6346 80.0813 67.4105 80.0021C67.1864 79.9228 66.9486 79.8893 66.7113 79.9034Z" fill="#1F4787"/>
<g opacity="0.3">
<path d="M22.957 129.14C26.3805 131.028 30.5735 130.744 34.4211 130.045C39.5504 129.115 44.544 127.551 49.2868 125.388C52.2075 124.076 55.0801 122.481 58.2412 121.921C63.383 121.007 70.4836 121.764 75.6166 120.701L75.3149 116.635L57.2531 114.418L22.957 129.14Z" fill="black"/>
</g>
<path d="M45.2649 81.5998C45.2649 81.5998 43.8483 79.5099 44.421 78.8672C44.8102 78.4299 54.5866 77.8091 55.2337 78.3163C55.6097 78.6136 54.8533 80.9396 54.8533 80.9396L45.2649 81.5998Z" fill="#E0E0E0"/>
<path d="M45.2646 81.5999C45.3267 81.5797 45.3917 81.5694 45.457 81.5693L45.9991 81.5124L48.0016 81.3419L54.8442 80.826L54.7481 80.9003C54.9283 80.368 55.0743 79.8248 55.1853 79.2738C55.2491 79.0074 55.2595 78.731 55.2159 78.4606C55.2159 78.4256 55.1896 78.43 55.1853 78.4081L55.1241 78.3775C55.0579 78.358 54.9908 78.3419 54.923 78.3294C54.783 78.3294 54.6344 78.2901 54.4857 78.2813C52.7934 78.2196 51.0989 78.2473 49.4095 78.3644C47.8442 78.4562 46.4364 78.5655 45.2734 78.7317C45.1247 78.7535 44.9848 78.7754 44.8361 78.806C44.7149 78.8254 44.597 78.8622 44.4863 78.9153C44.4243 79.0122 44.3836 79.1212 44.367 79.235C44.3504 79.3489 44.3583 79.465 44.3902 79.5755C44.4765 79.9627 44.6116 80.3374 44.7924 80.6905C44.9367 80.9878 45.0635 81.2108 45.1465 81.3638C45.1959 81.4385 45.2384 81.5175 45.2734 81.5999C45.2103 81.5348 45.1546 81.4629 45.1072 81.3857C45.011 81.2414 44.8711 81.0228 44.7137 80.7298C44.5169 80.3741 44.3698 79.9931 44.2765 79.5974C44.2375 79.4663 44.2278 79.3282 44.2482 79.1929C44.2686 79.0576 44.3186 78.9285 44.3945 78.8148C44.5265 78.73 44.676 78.6762 44.8318 78.6573C44.9717 78.6224 45.116 78.5961 45.269 78.5699C46.4451 78.3819 47.853 78.2595 49.4183 78.1545C51.1171 78.0222 52.8223 77.9886 54.5251 78.054C54.6781 78.054 54.8311 78.0802 54.9885 78.1065C55.0685 78.1197 55.1474 78.1387 55.2246 78.1633C55.2715 78.182 55.3156 78.207 55.3558 78.2376C55.3951 78.2779 55.4263 78.3254 55.4476 78.3775C55.516 78.6857 55.516 79.005 55.4476 79.3132C55.3371 79.8743 55.1911 80.4277 55.0104 80.9703L54.9885 81.0402H54.9142L48.0148 81.4775L46.0254 81.5824L45.4963 81.6043C45.4192 81.6118 45.3414 81.6103 45.2646 81.5999Z" fill="#1F4787"/>
<path d="M65.832 82.0371H65.7227L65.3948 82.0633L64.1399 82.142L59.5184 82.3956L44.2724 83.1389L34.1418 83.6111L34.238 83.5105C34.238 86.9165 34.238 89.7716 34.238 91.8178C34.238 92.8104 34.238 93.593 34.238 94.1526C34.238 94.4106 34.238 94.6117 34.238 94.7691C34.2485 94.8387 34.2485 94.9094 34.238 94.979C34.2332 94.9091 34.2332 94.839 34.238 94.7691C34.238 94.6161 34.238 94.4106 34.238 94.1526C34.238 93.593 34.2118 92.8104 34.1943 91.8178C34.1681 89.7935 34.1331 86.934 34.0894 83.5105V83.4144H34.1418L44.2636 82.9115L59.501 82.247L64.1225 82.0677L65.3817 82.0284H65.7052C65.7476 82.0231 65.7907 82.026 65.832 82.0371Z" fill="#455A64"/>
<path d="M54.3324 80.5812C54.1602 80.6223 53.9846 80.6472 53.8078 80.6555L52.3693 80.7823C51.1538 80.8785 49.4749 80.9966 47.621 81.1146C45.7672 81.2327 44.0838 81.3245 42.864 81.3813L41.4211 81.4382C41.2452 81.4542 41.0681 81.4542 40.8921 81.4382C41.0626 81.3875 41.239 81.3596 41.4168 81.3551C41.7534 81.3201 42.2475 81.2764 42.8552 81.2283C44.0707 81.1277 45.7497 81.0097 47.6035 80.8916C49.4573 80.7736 51.1407 80.6818 52.3605 80.6249L53.8034 80.5725C53.9794 80.5528 54.1572 80.5558 54.3324 80.5812Z" fill="#1F4787"/>
<path d="M44.1934 81.1015L44.4076 83.8429L55.9722 83.257L55.8017 80.4282L44.1934 81.1015Z" fill="#E0E0E0"/>
<path d="M44.1977 81.1015C44.2667 81.086 44.337 81.0772 44.4076 81.0752L45.0503 81.0228L47.4769 80.8479C49.5494 80.708 52.4701 80.5156 55.7842 80.3145H55.8935V80.4238C55.946 81.2982 56.0029 82.2426 56.0641 83.187V83.3488H55.9504C51.1759 83.5893 46.9566 83.786 44.3814 83.891H44.3158V83.8298C44.2633 82.9553 44.224 82.282 44.1933 81.7835L44.1671 81.2545C44.1611 81.1963 44.1611 81.1377 44.1671 81.0796C44.1806 81.1445 44.1893 81.2102 44.1933 81.2764L44.2546 81.8185C44.3027 82.3082 44.3682 82.9815 44.4469 83.8166L44.3814 83.7554C46.9479 83.598 51.1715 83.3619 55.9416 83.1215L55.8367 83.2395V83.1739C55.7799 82.2295 55.723 81.3026 55.6705 80.4106L55.7886 80.5156L47.5381 80.9528L45.0809 81.0665L44.412 81.0883L44.1977 81.1015Z" fill="#1F4787"/>
<path d="M6.92432 95.5213C6.92432 95.5213 8.33218 106.015 11.3359 114.007C14.3397 122 18.2791 128.93 22.7038 129.21C27.1286 129.489 42.3134 126.77 48.6969 123.202C55.0804 119.634 59.3915 117.199 59.3915 117.199L68.5733 110.82L60.8781 102.185C60.8781 102.185 40.6083 108.472 37.2285 108.66C35.2002 108.769 33.1662 108.639 31.1685 108.271C31.1685 108.271 31.6976 99.9198 30.7575 96.6362C29.8175 93.3526 26.9143 87.1571 26.9143 87.1571L6.92432 95.5213Z" fill="#FFBF9D"/>
<path d="M61.6392 99.9634C62.096 98.3499 62.6658 96.7705 63.3443 95.237C64.3587 93.029 64.6123 90.4974 64.7172 89.1158C64.8222 87.7342 64.5729 84.9534 65.5917 84.3369C66.6104 83.7204 68.9583 83.5062 69.0283 87.0171C69.0982 90.528 67.9877 92.4081 68.4162 94.0346C68.6733 95.0073 69.1012 95.9266 69.6798 96.7498L70.4405 96.2251L71.1401 99.1414L61.6392 99.9634Z" fill="#FFBF9D"/>
<path d="M31.9121 94.0784L39.1351 97.6462C39.1351 97.6462 51.6179 101.118 56.9652 100.462C62.3125 99.8061 71.1357 99.1502 71.1357 99.1502C71.1357 99.1502 69.5704 92.6268 70.1957 87.8829C73.1619 85.5891 76.9163 84.564 80.6366 85.0322C86.8015 85.8104 88.5067 88.6568 88.6248 88.941C89.7003 91.7392 93.8409 112.853 87.2737 117.26C80.7066 121.667 61.3724 118.025 56.7772 116.416C52.899 115.057 42.2219 110.789 38.4137 109.268C37.5107 108.906 36.5557 108.69 35.5848 108.629L30.9895 108.345V104.729C31.0159 101.568 30.5739 98.4213 29.6779 95.3901L28.8428 91.866L31.9121 94.0784Z" fill="#FFBF9D"/>
<path d="M31.9111 94.0783L31.71 93.9471L31.1328 93.5318L28.8462 91.8878L28.8986 91.8528C29.0954 92.6748 29.3358 93.6411 29.5938 94.7385C29.7119 95.2938 29.8955 95.8622 30.0573 96.4874C30.219 97.1127 30.3677 97.7554 30.4945 98.4462C30.7935 99.9563 30.9805 101.486 31.0541 103.024C31.0979 103.855 31.0979 104.716 31.0891 105.608C31.0804 106.5 31.0891 107.414 31.0891 108.363L31.0235 108.293L34.1628 108.481L35.8112 108.585C36.3807 108.629 36.9446 108.728 37.4945 108.883C38.057 109.047 38.609 109.246 39.1472 109.477L40.813 110.142L44.2759 111.519L51.7087 114.422C53.0204 114.921 54.3321 115.424 55.6438 115.918C56.3171 116.163 56.9904 116.416 57.69 116.617C58.3895 116.818 59.0978 117.002 59.8193 117.173C62.7946 117.856 65.804 118.382 68.8349 118.747C72.0241 119.155 75.2397 119.32 78.4539 119.241C80.1125 119.192 81.7639 119.002 83.3902 118.672C84.2095 118.493 85.0124 118.246 85.7905 117.933C86.5774 117.616 87.2992 117.157 87.9198 116.578C88.518 115.977 88.9972 115.267 89.3321 114.488C89.6891 113.706 89.9631 112.888 90.1497 112.048C90.5278 110.342 90.7373 108.602 90.7749 106.854C90.8351 103.472 90.6113 100.09 90.106 96.7454C89.8742 95.0971 89.5988 93.4662 89.2577 91.866C89.0829 91.0658 88.9036 90.2701 88.6762 89.5006C88.6194 89.3082 88.5538 89.1114 88.4882 88.9409C88.3941 88.7711 88.2827 88.6114 88.1559 88.4643C87.9036 88.1595 87.6208 87.8812 87.3121 87.6336C86.0597 86.6699 84.6172 85.983 83.0797 85.618C81.5868 85.2117 80.0447 85.0146 78.4976 85.0321C76.9905 85.0697 75.4993 85.3503 74.0816 85.8628C72.6962 86.3467 71.3995 87.0542 70.2428 87.9572L70.2778 87.8916C70.0793 89.8109 70.091 91.7462 70.3127 93.663C70.5053 95.4991 70.8046 97.3225 71.209 99.1239V99.2332H71.0997C67.6019 99.4999 64.244 99.7798 61.1047 100.081L56.5532 100.558C55.132 100.643 53.7061 100.591 52.2946 100.405C49.8144 100.101 47.3511 99.6723 44.9142 99.1195C42.7062 98.6342 40.7606 98.1402 39.0816 97.6811L33.7212 95.0096L32.3921 94.3232C32.0816 94.1658 31.9286 94.0783 31.9286 94.0783C31.9286 94.0783 32.0904 94.1483 32.4008 94.3013L33.7912 94.9746L39.1734 97.598C40.848 98.0352 42.798 98.5337 45.006 99.0102C47.214 99.4868 49.6669 99.9678 52.3733 100.269C53.7766 100.449 55.1936 100.496 56.6057 100.409L61.1528 99.924C64.2921 99.6092 67.6325 99.325 71.1522 99.0496L71.0648 99.1676C70.6577 97.359 70.3555 95.5283 70.1597 93.6848C69.9329 91.7524 69.9182 89.8009 70.116 87.8653V87.826L70.1466 87.7997C71.3216 86.8808 72.6391 86.1601 74.0466 85.6661C75.4859 85.1415 77.0011 84.855 78.5326 84.8179C80.1 84.7978 81.6626 84.995 83.1759 85.4038C84.7448 85.7785 86.2168 86.4803 87.4957 87.4631C87.8154 87.725 88.1083 88.0179 88.3702 88.3375C88.5075 88.498 88.6276 88.6724 88.7287 88.8578C88.8118 89.059 88.8686 89.2513 88.9298 89.4481C89.1616 90.2307 89.3408 91.0308 89.5157 91.831C89.8611 93.44 90.1366 95.0708 90.3902 96.7279C90.8689 100.084 91.0663 103.474 90.9804 106.863C90.9434 108.628 90.7325 110.386 90.3508 112.11C90.1564 112.963 89.8766 113.795 89.5157 114.593C89.1688 115.397 88.6734 116.128 88.0554 116.749C86.7699 117.968 85.0647 118.497 83.4339 118.878C81.7935 119.211 80.1272 119.402 78.4539 119.446C75.2277 119.53 71.9999 119.362 68.7999 118.943C65.7597 118.577 62.7414 118.047 59.7581 117.356C59.0367 117.186 58.324 117.002 57.62 116.797C56.9161 116.591 56.234 116.338 55.5607 116.093C54.214 115.594 52.898 115.087 51.6257 114.589L44.1928 111.672L40.73 110.286L39.0685 109.622C38.5359 109.389 37.9899 109.189 37.4333 109.023C36.8928 108.873 36.3395 108.773 35.7806 108.725L34.1366 108.62L30.9973 108.424H30.9274V108.354C30.9274 107.404 30.9346 106.484 30.9492 105.595C30.9492 104.72 30.9492 103.846 30.923 103.02C30.8542 101.492 30.676 99.9705 30.3896 98.4681C30.2584 97.7816 30.1097 97.1302 29.9523 96.518C29.7949 95.9059 29.62 95.3288 29.5151 94.7691L28.8374 91.8791V91.7916L28.9074 91.8441L31.1722 93.5143L31.7406 93.9515L31.9111 94.0783Z" fill="#131212"/>
<path d="M81.8602 107.23C81.6677 106.549 81.4385 105.879 81.1737 105.223C80.4964 103.657 79.423 102.295 78.0591 101.27C76.6952 100.245 75.088 99.5926 73.3955 99.3775C72.6926 99.3029 71.9861 99.2679 71.2793 99.2725C71.4647 99.222 71.6556 99.1941 71.8477 99.1895C72.3706 99.1517 72.8959 99.1604 73.4173 99.2157C75.1516 99.3929 76.8045 100.04 78.1976 101.088C79.5908 102.136 80.6712 103.545 81.3224 105.162C81.5198 105.646 81.6734 106.146 81.7815 106.657C81.8318 106.844 81.8583 107.037 81.8602 107.23Z" fill="#131212"/>
<path d="M31.164 57.5524C30.4732 58.0115 17.5575 63.4068 16.2983 64.0539C16.2983 64.0539 2.49942 69.3006 4.13465 83.9915C5.04408 92.1457 6.53939 98.8047 6.53939 98.8047C6.53939 98.8047 12.4332 95.2457 16.5956 93.5361C21.956 91.35 28.4707 90.3706 28.4707 90.3706L24.798 77.3281L31.164 57.5524Z" fill="#E0E0E0"/>
<path d="M24.5217 77.7872C24.5829 77.7872 25.536 80.7166 26.6553 84.3674C27.7746 88.0183 28.6316 91.0002 28.5704 91.0177C28.5092 91.0351 27.556 88.0926 26.4367 84.4374C25.3174 80.7822 24.4779 77.8047 24.5217 77.7872Z" fill="#1F4787"/>
<path d="M22.6469 73.6204C22.2621 73.1329 21.8505 72.6673 21.4139 72.2257L21.0816 71.9196L20.6968 71.6179C20.4168 71.3953 20.1249 71.1881 19.8224 70.9971C19.1277 70.5572 18.3963 70.1783 17.6363 69.8646C16.2503 69.2713 14.7698 68.9293 13.264 68.8546C12.6428 68.8515 12.0225 68.9027 11.4102 69.0077C11.5634 68.9346 11.7249 68.8803 11.8911 68.8459C12.3417 68.7446 12.8021 68.6932 13.264 68.6929C14.7916 68.7233 16.2987 69.05 17.7018 69.6548C18.4761 69.9739 19.2196 70.3632 19.923 70.8178C20.2334 71.0452 20.5438 71.255 20.7974 71.4693L21.1822 71.7884L21.5101 72.112C21.6998 72.2935 21.8752 72.4893 22.0348 72.6979C22.1658 72.8472 22.2828 73.0082 22.3845 73.1788C22.4875 73.3162 22.5755 73.4642 22.6469 73.6204Z" fill="#1F4787"/>
<path d="M9.52557 97.257C9.48973 97.1822 9.4647 97.1027 9.45124 97.0209C9.40752 96.8372 9.35068 96.6099 9.28073 96.3301C9.13644 95.7267 8.94406 94.8566 8.7167 93.7723C8.27948 91.6124 7.70234 88.6086 7.21264 85.2726C6.72295 81.9365 6.40377 78.8978 6.242 76.6942C6.15892 75.5924 6.10645 74.7005 6.08459 74.0708C6.08459 73.7823 6.08459 73.5462 6.06273 73.3582C6.05331 73.2754 6.05331 73.1918 6.06273 73.1089C6.08645 73.19 6.09967 73.2738 6.10208 73.3582C6.10208 73.5418 6.13707 73.7954 6.1633 74.0665C6.22014 74.7092 6.29884 75.5924 6.39065 76.668C6.59615 78.8541 6.93718 81.9147 7.42688 85.2289C7.91657 88.543 8.45437 91.5599 8.86973 93.7285C9.07086 94.791 9.237 95.6611 9.35943 96.2951C9.41189 96.5793 9.45561 96.811 9.48621 96.9946C9.51019 97.0801 9.52342 97.1682 9.52557 97.257Z" fill="#1F4787"/>
<path d="M10.9294 96.2995C10.8975 96.2179 10.8755 96.1327 10.8638 96.0459C10.8245 95.8579 10.7808 95.6086 10.7239 95.3201C10.6059 94.6599 10.4441 93.7504 10.2517 92.6442C9.86695 90.3794 9.37727 87.2489 8.84386 83.786C8.31044 80.3232 7.89506 77.1752 7.62835 74.8972C7.49719 73.7561 7.39226 72.8291 7.3398 72.1908L7.27858 71.4519C7.26912 71.3661 7.26912 71.2796 7.27858 71.1939C7.30651 71.2759 7.32414 71.3611 7.33104 71.4475C7.35728 71.6399 7.39226 71.8847 7.43161 72.182C7.51906 72.8466 7.64148 73.7604 7.79014 74.8754C8.10057 77.1489 8.55528 80.2882 9.07121 83.7511C9.58714 87.2139 10.0681 90.3095 10.4135 92.618C10.5796 93.7329 10.7152 94.6424 10.8157 95.307C10.8551 95.6043 10.8857 95.8491 10.9119 96.0415C10.9257 96.1268 10.9316 96.2131 10.9294 96.2995Z" fill="#1F4787"/>
<g opacity="0.3">
<path d="M28.3784 91.5031C30.7944 96.1352 32.0133 101.298 31.9243 106.522C36.094 106.921 40.0509 108.551 43.2922 111.204C41.364 109.893 36.5983 108.271 31.0018 108.354C31.2816 99.6617 30.206 97.3138 28.3784 91.5031Z" fill="black"/>
</g>
<path d="M53.266 56.8527C53.3629 57.069 53.4319 57.2967 53.4715 57.5304C53.5283 57.7578 53.5983 58.0376 53.6726 58.3743L53.8694 59.5373C54.2183 62.0276 54.3979 64.5386 54.4071 67.0532C54.4509 70.245 54.3328 74.0488 53.9699 78.2943C53.5854 82.9117 52.9255 87.502 51.9937 92.0407L51.8362 92.8059L51.399 92.1675L49.978 90.165C46.9393 85.9239 43.9968 81.9058 41.4958 78.1282C38.9949 74.3505 36.8569 70.8746 35.226 67.849C33.9064 65.474 32.8003 62.9867 31.9206 60.4161C31.7632 59.9789 31.6495 59.5417 31.5489 59.1963C31.4484 58.8508 31.3697 58.536 31.3172 58.2912C31.2438 58.0436 31.1997 57.7883 31.186 57.5304C31.2472 57.5304 31.5052 58.5448 32.1698 60.3287C33.1481 62.8397 34.3175 65.2719 35.6676 67.6041C37.3378 70.5729 39.5371 74.0051 42.038 77.7653C44.5389 81.5254 47.5077 85.5086 50.5552 89.754L51.9762 91.7609L51.3641 91.8877C52.2933 87.3744 52.9706 82.8129 53.3928 78.2244C53.795 74.0139 53.9612 70.2187 53.9787 67.0445C54.0114 64.5453 53.9034 62.0462 53.6551 59.5592L53.5196 58.3918C53.4671 58.0595 53.419 57.7796 53.384 57.5479C53.3162 57.3219 53.2765 57.0884 53.266 56.8527Z" fill="#455A64"/>
<path d="M47.9271 95.46C47.8178 94.8593 47.8846 94.2398 48.1194 93.6761C48.4211 92.8935 49.1338 92.0278 50.7909 91.9272C51.7983 91.8465 52.8121 91.9053 53.8034 92.1021C54.0506 92.1594 54.2836 92.2665 54.4881 92.4168C54.6926 92.5672 54.8643 92.7576 54.9926 92.9766L57.4542 97.0909L57.1525 98.5468L54.2756 99.2289L52.4567 97.0428L50.5592 97.3663C50.5592 97.3663 48.443 97.8036 47.9358 95.46H47.9271Z" fill="#A69E9D"/>
<path d="M49.3706 92.2857C49.3706 92.2857 49.4056 92.2594 49.4755 92.2288C49.578 92.1838 49.685 92.1501 49.7947 92.1283C50.2055 92.0323 50.6365 92.077 51.0189 92.2551C51.5848 92.5246 52.0459 92.9734 52.3306 93.5318L53.415 95.4512L54.7266 97.8428L54.6129 97.7947C55.4612 97.5674 56.1695 97.3837 56.6679 97.2613C56.9271 97.1808 57.1937 97.1266 57.4637 97.0995C57.2196 97.2158 56.9648 97.308 56.7029 97.375C56.2132 97.528 55.5093 97.7423 54.6654 97.9871H54.5911L54.5517 97.9171C54.1539 97.2088 53.6773 96.4 53.2094 95.543C52.4093 94.2313 51.924 92.7797 50.9577 92.3775C50.6051 92.201 50.2068 92.1369 49.8166 92.1938C49.6698 92.2332 49.5209 92.2639 49.3706 92.2857Z" fill="#1F4787"/>
<path d="M54.35 99.2508C54.2888 99.2508 54.3019 98.9228 54.3806 98.5468C54.4593 98.1708 54.5686 97.8779 54.6298 97.891C54.691 97.9041 54.6779 98.2189 54.6036 98.5949C54.5292 98.9709 54.4112 99.2639 54.35 99.2508Z" fill="#1F4787"/>
<path d="M50.0439 97.3837C50.0439 97.3488 50.2363 97.34 50.5205 97.2701C50.886 97.1757 51.2102 96.9637 51.4431 96.6667C51.56 96.5148 51.6515 96.345 51.7142 96.1639L51.7841 95.9584L51.9022 96.1245C52.1351 96.3989 52.3226 96.7089 52.4574 97.0427C52.4181 97.0733 52.1208 96.7454 51.7316 96.2513L51.9196 96.2163C51.8599 96.4306 51.7589 96.6311 51.6223 96.8066C51.3608 97.1463 50.9759 97.3694 50.5511 97.4275C50.232 97.4624 50.0439 97.41 50.0439 97.3837Z" fill="#1F4787"/>
<path d="M51.2763 94.7997C51.245 94.6984 51.2231 94.5945 51.2107 94.4893C51.1558 94.2138 51.0221 93.9602 50.8259 93.7591C50.6892 93.6148 50.5117 93.5156 50.3172 93.475C50.1226 93.4344 49.9202 93.4542 49.7372 93.5318C49.5166 93.6409 49.3311 93.8098 49.202 94.0194C49.0729 94.2289 49.0053 94.4705 49.007 94.7166C48.9906 94.962 49.0418 95.2071 49.1552 95.4253C49.2685 95.6435 49.4396 95.8264 49.6498 95.954C49.8268 96.0438 50.027 96.0777 50.2238 96.0512C50.4206 96.0246 50.6046 95.9389 50.7516 95.8053C50.9597 95.6193 51.1112 95.3783 51.1888 95.1101C51.2083 95.0042 51.2376 94.9003 51.2763 94.7997C51.3046 94.9072 51.3046 95.0202 51.2763 95.1276C51.2174 95.4334 51.0645 95.7131 50.839 95.9278C50.6814 96.0802 50.4847 96.1862 50.2706 96.2338C50.0205 96.286 49.7601 96.2521 49.5317 96.1376C49.287 95.99 49.0863 95.7794 48.9505 95.5279C48.8147 95.2765 48.7487 94.9932 48.7594 94.7076C48.7701 94.422 48.8572 94.1444 49.0114 93.9038C49.1657 93.6632 49.3816 93.4683 49.6367 93.3394C49.8743 93.2422 50.1378 93.2284 50.3843 93.3C50.5921 93.366 50.7789 93.485 50.9265 93.6454C51.1303 93.8756 51.2545 94.1654 51.2806 94.4718C51.3082 94.5796 51.3067 94.6927 51.2763 94.7997Z" fill="#1F4787"/>
<path d="M54.665 93.2914C54.665 93.2914 54.665 93.2695 54.7218 93.2695C54.7517 93.2732 54.7802 93.2843 54.8047 93.3019C54.8291 93.3195 54.8487 93.3429 54.8617 93.3701L54.9885 93.5756L55.0628 93.7068C55.0866 93.7373 55.1029 93.773 55.1105 93.8109C55.1181 93.8488 55.1168 93.888 55.1066 93.9254C55.0914 93.971 55.0623 94.0107 55.0235 94.0391C54.9851 94.0596 54.9438 94.0744 54.9011 94.0828L54.7043 94.1221L54.2671 94.2052L53.2571 94.3801C53.2163 94.3825 53.1755 94.375 53.1382 94.3583C53.1009 94.3415 53.0682 94.316 53.0429 94.2839C53.0132 94.24 52.9883 94.1931 52.9685 94.144L52.8636 93.9079L52.8155 93.7898C52.7821 93.7316 52.7726 93.6625 52.7893 93.5975C52.7995 93.5631 52.8168 93.5314 52.8402 93.5042C52.8636 93.4771 52.8924 93.4552 52.9248 93.44C52.9712 93.4231 53.0198 93.4128 53.0691 93.4094L53.8955 93.3176C54.1473 93.2666 54.4059 93.2577 54.6606 93.2914C54.4227 93.3873 54.1725 93.4491 53.9173 93.475L53.0997 93.6193C52.9991 93.6193 53.0123 93.6193 52.9992 93.6543C53.0172 93.7104 53.0406 93.7645 53.0691 93.8161L53.1741 94.0478C53.1904 94.079 53.205 94.1111 53.2178 94.144H53.2396L54.2321 93.9866L54.6694 93.9254L54.8661 93.8991C54.9404 93.8991 54.9317 93.8991 54.9535 93.8642C54.9754 93.8292 54.8967 93.7068 54.8705 93.6281L54.7787 93.4051C54.7524 93.2958 54.665 93.3089 54.665 93.2914Z" fill="#1F4787"/>
<path d="M56.8034 96.7673C56.5103 96.9563 56.1787 97.0773 55.8327 97.1214C55.4968 97.2354 55.1416 97.2815 54.7878 97.2569C54.7615 97.2001 55.1944 97.0427 55.7584 96.9072C56.0927 96.7862 56.4491 96.7384 56.8034 96.7673Z" fill="#1F4787"/>
<path d="M169.246 173H0" stroke="black" stroke-width="1.02864" stroke-miterlimit="10"/>
<path d="M93.0339 172.697C93.0339 172.697 90.7346 168.619 94.0093 151.743C95.8893 142.06 104.213 129.575 104.213 129.575C104.213 129.575 144.061 130.563 144.096 131.199C144.131 131.834 156.29 144.187 158.055 157.034C159.821 169.882 159.476 172.697 159.476 172.697H93.0339Z" fill="#1F4787"/>
<path d="M124.492 157.745C124.43 157.745 124.13 152.661 123.821 146.39C123.512 140.118 123.318 135.025 123.38 135.021C123.442 135.016 123.746 140.101 124.051 146.376C124.355 152.652 124.558 157.741 124.492 157.745Z" fill="#455A64"/>
<path d="M128.076 136.618C127.352 136.583 126.642 137.32 126.439 137.942C126.284 138.403 126.295 138.903 126.468 139.358C126.641 139.812 126.967 140.192 127.389 140.433C127.811 140.674 128.303 140.761 128.782 140.68C129.261 140.599 129.698 140.354 130.016 139.987C130.335 139.62 130.517 139.154 130.531 138.668C130.544 138.182 130.389 137.707 130.092 137.322C129.794 136.938 129.373 136.669 128.899 136.561C128.425 136.453 127.928 136.512 127.493 136.729" fill="#455A64"/>
<path d="M114.483 60.0343L117.1 53.4143L132.714 52.5891L139.091 53.4143L139.793 55.2459L144.123 131.834C144.123 131.834 128.998 134.884 121.434 133.825C113.869 132.766 104.985 129.314 104.985 129.314V85.7595L114.483 60.0343Z" fill="#E0E0E0"/>
<path d="M137.984 63.1457C137.956 63.1967 137.92 63.2428 137.878 63.2825L137.538 63.662C137.238 63.993 136.788 64.4653 136.214 65.0478C134.604 66.6435 132.896 68.1367 131.099 69.5185L131.028 69.5803L130.962 69.5097C129.274 67.6581 127.709 65.6989 126.275 63.6444L125.812 62.9691H126.001L122.246 68.0224C122.1 68.2242 121.924 68.4027 121.725 68.552C121.518 68.709 121.259 68.7802 121.001 68.7506C120.76 68.7002 120.541 68.5751 120.374 68.3931C120.218 68.2334 120.071 68.0654 119.933 67.89L118.455 66.032L116.327 63.3487L115.758 62.6117C115.688 62.5291 115.626 62.4405 115.573 62.3469C115.656 62.4171 115.73 62.4972 115.793 62.5852C115.943 62.7617 116.146 62.9956 116.394 63.2913L118.578 65.9393L120.079 67.7752C120.348 68.0974 120.617 68.4902 121.023 68.5564C121.429 68.6226 121.796 68.2695 122.074 67.8988L125.807 62.8367L125.9 62.7088L125.993 62.8412L126.456 63.512C127.885 65.558 129.438 67.5139 131.108 69.3684H130.966C132.763 67.9933 134.483 66.52 136.117 64.9551C136.717 64.3858 137.176 63.9268 137.489 63.6311C137.639 63.4855 137.758 63.3708 137.851 63.2737C137.889 63.2253 137.934 63.1822 137.984 63.1457Z" fill="#1F4787"/>
<g opacity="0.3">
<path d="M120.145 68.0047C120.145 68.0047 122.122 70.4409 122.678 69.8318C123.234 69.2228 126.169 64.6771 126.522 64.4873C126.875 64.2975 130.414 70.6659 131.818 70.2246C133.221 69.7833 138.168 64.8227 138.168 64.8227L138.266 62.8676L131.041 69.4434L125.913 62.9117L121.597 68.5255C121.597 68.5255 120.67 69.236 120.145 68.0047Z" fill="black"/>
</g>
<path d="M107.73 16.0071C107.73 16.0071 103.648 31.2771 103.295 42.0853L103.176 45.6822C103.176 45.6822 112.192 53.1848 119.748 53.6261L126.085 38.0471L107.73 16.0071Z" fill="#1F4787"/>
<path d="M147.759 25.3722C146.038 17.9225 145.376 9.25476 139.179 4.40012C134.585 0.794441 129.347 -0.211793 123.512 0.0353525C120.639 0.154512 117.395 1.47851 114.889 2.89518C111.459 4.83703 110.007 8.77812 108.348 12.3573C105.034 19.5289 105.453 29.2382 107.699 31.9348L137.661 47.7565C143.646 44.6451 147.393 43.4049 148.35 35.4301C148.737 32.0685 148.537 28.6653 147.759 25.3722Z" fill="#1F4787"/>
<path d="M138.866 10.3183L120.012 4.75313C113.935 3.87046 109.584 11.2186 108.957 17.3266C108.264 24.1099 107.681 32.4202 108.286 37.5264C109.504 47.7917 117.276 49.3982 117.276 49.3982L117.219 53.5202L125.807 62.6469L138.932 53.8733L141.933 14.0829C141.987 13.1852 141.701 12.3001 141.133 11.6029C140.565 10.9057 139.756 10.4472 138.866 10.3183Z" fill="#FFBF9D"/>
<path d="M112.417 26.6167C112.405 26.9563 112.523 27.2878 112.748 27.5425C112.974 27.7972 113.288 27.9556 113.627 27.9848C113.793 28.005 113.961 27.9917 114.121 27.9457C114.282 27.8997 114.432 27.8219 114.562 27.7169C114.692 27.612 114.8 27.482 114.878 27.3347C114.957 27.1874 115.006 27.0258 115.021 26.8594C115.034 26.5197 114.915 26.1882 114.69 25.9335C114.465 25.6788 114.151 25.5205 113.812 25.4913C113.646 25.4711 113.478 25.4844 113.317 25.5304C113.157 25.5764 113.007 25.6542 112.877 25.7591C112.747 25.8641 112.639 25.994 112.56 26.1413C112.481 26.2886 112.433 26.4503 112.417 26.6167Z" fill="#1F4787"/>
<path d="M110.206 23.4788C110.361 23.6554 111.38 22.9625 112.793 23.0375C114.205 23.1125 115.202 23.8407 115.361 23.673C115.44 23.6024 115.286 23.2891 114.849 22.9404C114.257 22.4947 113.542 22.2434 112.801 22.221C112.069 22.1892 111.345 22.3917 110.736 22.7992C110.29 23.0949 110.131 23.3994 110.206 23.4788Z" fill="#1F4787"/>
<path d="M124.784 26.6167C124.771 26.9563 124.89 27.2878 125.115 27.5425C125.34 27.7972 125.654 27.9556 125.993 27.9848C126.159 28.0056 126.327 27.9927 126.488 27.947C126.649 27.9012 126.799 27.8235 126.929 27.7184C127.06 27.6134 127.167 27.4832 127.246 27.3356C127.325 27.188 127.373 27.026 127.387 26.8594C127.4 26.5197 127.282 26.1882 127.056 25.9335C126.831 25.6788 126.517 25.5205 126.178 25.4913C126.012 25.4711 125.844 25.4844 125.683 25.5304C125.523 25.5764 125.373 25.6542 125.243 25.7591C125.113 25.8641 125.005 25.994 124.926 26.1413C124.847 26.2886 124.799 26.4503 124.784 26.6167Z" fill="#1F4787"/>
<path d="M124.059 23.6642C124.214 23.8452 125.233 23.1478 126.641 23.2229C128.049 23.2979 129.055 24.0261 129.214 23.8584C129.294 23.7834 129.139 23.47 128.702 23.1258C128.109 22.6787 127.392 22.4259 126.65 22.402C125.918 22.3735 125.195 22.5757 124.585 22.9801C124.143 23.2626 123.98 23.5627 124.059 23.6642Z" fill="#1F4787"/>
<path d="M118.574 32.7732C118.574 32.6938 117.714 32.5084 116.301 32.2701C115.944 32.2216 115.608 32.1333 115.555 31.8862C115.54 31.5141 115.639 31.1462 115.838 30.8314L117.007 28.1348C118.64 24.2953 119.836 21.1309 119.677 21.0736C119.519 21.0162 118.075 24.0658 116.447 27.9098L115.322 30.624C115.076 31.0481 114.99 31.5456 115.079 32.0274C115.125 32.1565 115.2 32.2732 115.299 32.3682C115.398 32.4632 115.517 32.5339 115.648 32.5746C115.846 32.6371 116.05 32.6741 116.257 32.685C117.678 32.813 118.565 32.8527 118.574 32.7732Z" fill="#1F4787"/>
<path d="M117.233 49.3982C122.033 49.6673 126.814 48.5978 131.042 46.3089C131.042 46.3089 127.383 53.3172 117.21 51.9579L117.233 49.3982Z" fill="#FF9A6C"/>
<path d="M123.142 35.9023C122.968 35.6129 122.725 35.3708 122.434 35.1976C122.144 35.0244 121.816 34.9254 121.478 34.9093C121.006 34.8576 120.529 34.9326 120.095 35.1265C119.661 35.3204 119.287 35.6263 119.011 36.0127C118.814 36.3772 118.759 36.8016 118.857 37.2043C118.94 37.4073 118.857 37.3058 119.024 37.4514C119.531 38.0135 120.167 38.4437 120.878 38.7048C121.262 38.8165 121.672 38.8101 122.052 38.6866C122.433 38.563 122.768 38.328 123.014 38.0119C123.226 37.7055 123.35 37.3469 123.373 36.975C123.395 36.6031 123.315 36.2321 123.142 35.9023Z" fill="#FF9A6C"/>
<path d="M122.93 33.9737C122.705 33.9472 122.63 35.4787 121.275 36.5026C119.92 37.5264 118.3 37.2881 118.278 37.5C118.252 37.5926 118.627 37.8133 119.311 37.8619C120.205 37.9144 121.09 37.6504 121.809 37.116C122.501 36.6028 122.965 35.8394 123.102 34.9888C123.19 34.3533 123.045 33.9693 122.93 33.9737Z" fill="#1F4787"/>
<path d="M123.526 18.4918C123.627 18.8845 125.044 18.8404 126.672 19.1979C128.301 19.5554 129.585 20.1335 129.837 19.8158C129.951 19.6613 129.753 19.2773 129.254 18.8581C128.581 18.3363 127.799 17.9743 126.965 17.7992C126.132 17.6241 125.27 17.6406 124.444 17.8474C123.817 18.0328 123.486 18.302 123.526 18.4918Z" fill="#1F4787"/>
<path d="M110.325 19.6923C110.643 19.9703 111.649 19.4849 112.973 19.2818C114.297 19.0788 115.387 19.1494 115.595 18.7831C115.679 18.6066 115.462 18.3153 114.942 18.0814C114.24 17.8085 113.475 17.7367 112.735 17.874C111.976 17.9818 111.265 18.3068 110.687 18.8096C110.281 19.2024 110.18 19.5511 110.325 19.6923Z" fill="#1F4787"/>
<path d="M119.955 3.65424C119.955 3.72926 119.924 3.79988 119.907 3.8749H119.942L119.955 3.65424Z" fill="#1F4787"/>
<path d="M134.846 53.0392C134.616 53.1039 134.375 53.1196 134.139 53.0853C133.903 53.051 133.677 52.9675 133.475 52.8402C133.273 52.7129 133.1 52.5446 132.968 52.3462C132.835 52.1479 132.746 51.9239 132.705 51.6888C132.381 49.6344 132.363 47.5433 132.652 45.4836C132.983 42.6503 134.907 39.6846 135.146 36.838C135.587 31.414 135.124 28.3732 134.519 23.8231C131.964 23.5054 129.581 21.9739 127.899 19.988C125.851 17.6048 124.616 14.6479 123.411 11.7439C123.485 14.6165 124.456 17.394 126.187 19.6879C125.613 19.7765 125.026 19.7292 124.473 19.5498C123.92 19.3705 123.417 19.064 123.005 18.6551C122.187 17.8293 121.551 16.8417 121.138 15.7556C120.035 13.1695 119.421 10.4011 119.328 7.59097C118.945 11.6117 119.395 15.6685 120.652 19.5069C119.937 19.2862 119.17 19.4848 118.446 19.5908C117.722 19.6967 116.857 19.679 116.332 19.1494C116.014 18.7585 115.814 18.2857 115.754 17.7857C115.051 14.3686 114.938 10.8565 115.418 7.4012C114.451 9.23211 113.666 11.1538 113.075 13.1385C112.489 15.1423 112.474 17.2698 113.031 19.2818C112.948 19.3666 112.85 19.4339 112.741 19.4799C112.632 19.526 112.515 19.5497 112.397 19.5497C112.279 19.5497 112.162 19.526 112.054 19.4799C111.945 19.4339 111.846 19.3666 111.764 19.2818C111.442 18.9293 111.247 18.4784 111.212 18.002C110.943 16.2852 111.243 14.5375 111.548 12.8296C110.528 14.639 110.188 16.7398 109.624 18.7346C109.059 20.7294 108.158 22.786 106.424 23.9246C106.131 21.3147 106.217 18.6762 106.68 16.091C107.02 13.9505 108.035 11.8277 108.975 9.87707C109.971 7.71612 111.375 5.76797 113.11 4.13976C116.12 1.49178 117.378 2.63924 119.289 3.64106L119.514 3.73815C119.514 3.68961 119.514 3.64106 119.514 3.59693L119.598 3.18649C124.626 2.06194 129.865 2.30732 134.766 3.89703C138.385 5.07538 138.738 12.8693 139.621 9.16652C140.155 6.92456 143.059 8.97234 143.094 9.03412C147.362 16.7353 151.89 28.9514 152.097 48.2552L134.846 53.0392Z" fill="#1F4787"/>
<g opacity="0.3">
<path d="M109.708 103.373C106.972 121.32 104.237 139.268 101.503 157.215L102.139 163.05C102.858 163.871 104.293 163.597 105.025 162.785C105.758 161.973 105.974 160.839 106.155 159.762C109.28 141.142 110.966 122.205 109.708 103.373Z" fill="black"/>
</g>
<path d="M109.452 58.0262L100.184 59.8357C98.2079 60.2463 96.3787 61.1807 94.8879 62.5411C93.3971 63.9014 92.2996 65.6376 91.7102 67.5678C91.4179 68.5222 91.2068 69.4995 91.0791 70.4894C90.2715 76.7475 86.4452 93.6681 86.4452 93.6681C86.4452 93.6681 77.9142 97.7239 77.5435 101.202C77.1728 104.679 80.496 110.99 80.496 110.99C80.496 110.99 84.1811 120.673 89.0711 122.694C94.4377 124.901 98.1713 118.233 98.1713 118.233C98.2066 118.842 98.2287 119.181 98.2287 119.181L84.1811 150.957C87.7559 157.335 94.4686 164.802 101.287 166.426C101.287 166.426 109.2 117.045 109.646 106.259C110.092 95.4732 117.016 53.5555 117.016 53.5555L109.452 58.0262Z" fill="#A69E9D"/>
<path d="M76.9476 65.295C76.9476 65.295 75.4647 64.7036 75.0498 65.9437C74.7806 66.747 74.2378 68.8698 73.8847 70.26C73.7838 70.6628 73.7709 71.0827 73.8471 71.4909C73.9233 71.8992 74.0866 72.2862 74.326 72.6255L75.4559 74.2055C75.0631 75.2057 75.0013 76.3054 75.2793 77.3433C75.2793 77.3433 73.5361 79.1086 73.7567 80.671C73.7567 80.671 71.5236 82.092 72.0929 84.4576C72.6622 86.8231 79.2778 93.9903 79.2778 93.9903L83.5057 95.3143L88.9473 91.1879C88.9473 91.1879 90.1787 84.5679 89.958 81.7169C89.6932 78.2922 88.4133 77.9524 88.4133 77.9524L82.7202 72.5946L80.69 69.7083C80.69 69.7083 78.7791 70.0084 79.1233 72.4754L77.4198 71.2706L76.9784 69.2317C76.9784 69.2317 78.2318 66.6808 76.9476 65.295Z" fill="#FFBF9D"/>
<path d="M72.292 53.5688C72.6362 53.7629 79.2606 73.0094 79.2606 73.0094L80.8671 73.8126L73.7396 53.1451L72.292 53.5688Z" fill="#1F4787"/>
<path d="M78.5051 76.7077C78.5765 76.739 78.6445 76.7774 78.7081 76.8225L79.2642 77.18L81.2987 78.504C81.7401 78.7776 82.1814 79.0821 82.7242 79.3866C82.9802 79.5411 83.2494 79.6911 83.5319 79.828C83.8067 79.9823 84.1048 80.0911 84.4145 80.1501C84.5638 80.1704 84.7157 80.1522 84.8559 80.0972C84.9925 80.0295 85.1005 79.9152 85.1604 79.775C85.2867 79.4515 85.351 79.1072 85.3502 78.7599C85.3706 78.5855 85.3706 78.4092 85.3502 78.2347C85.2993 78.0667 85.2202 77.9085 85.1162 77.7669C84.8983 77.4575 84.6483 77.172 84.3704 76.9152C83.293 75.9237 82.1341 75.0246 80.9059 74.2275C79.9246 73.5465 78.8917 72.943 77.8166 72.4224C77.6139 72.3417 77.3921 72.3217 77.1782 72.3648C76.9642 72.4079 76.7675 72.5122 76.6118 72.6651C76.3518 72.8898 76.1245 73.1498 75.9366 73.4375C75.6144 73.9097 75.4952 74.201 75.4688 74.1922C75.4857 74.1169 75.5124 74.0442 75.5482 73.9759C75.6391 73.7733 75.7438 73.5772 75.8615 73.3889C76.0415 73.0836 76.2661 72.8069 76.5279 72.5681C76.6942 72.4125 76.8933 72.2964 77.1105 72.2282C77.362 72.1502 77.6332 72.1659 77.874 72.2724C78.9727 72.77 80.0269 73.3606 81.0251 74.0377C82.2789 74.8311 83.4603 75.7335 84.5558 76.7342C84.8418 77.0022 85.1005 77.2978 85.3281 77.6169C85.4476 77.7808 85.5372 77.9646 85.5929 78.1597C85.6239 78.3538 85.6313 78.5509 85.615 78.7467C85.6136 79.1249 85.5402 79.4993 85.3987 79.85C85.3179 80.0407 85.1726 80.1969 84.9883 80.2913C84.8087 80.3615 84.6138 80.3828 84.4234 80.3531C84.0867 80.292 83.7628 80.1741 83.4657 80.0045C83.1788 79.85 82.9096 79.6911 82.6492 79.5323C82.1329 79.2189 81.665 78.9056 81.2369 78.6231C80.3852 78.0538 79.7055 77.5728 79.2377 77.2373L78.7081 76.8445C78.5625 76.7695 78.5007 76.7166 78.5051 76.7077Z" fill="#FF9A6C"/>
<path d="M75.5088 80.2516C75.6353 80.2112 75.7653 80.1832 75.8972 80.1677L77.0049 79.9824L78.7702 81.2623C79.494 82.0213 80.359 82.9172 81.3564 83.8529C81.608 84.0868 81.8684 84.3251 82.142 84.5502C82.3946 84.7904 82.6955 84.974 83.0247 85.0886C83.1902 85.1266 83.3635 85.1132 83.5212 85.0501C83.6789 84.987 83.8137 84.8773 83.9073 84.7355C84.1253 84.4339 84.2676 84.0842 84.3222 83.7161C84.3351 83.5369 84.2885 83.3585 84.1898 83.2085C84.0999 83.035 83.9997 82.8669 83.8897 82.7054C83.6734 82.3788 83.4483 82.0655 83.2012 81.7654C82.7246 81.1652 82.2347 80.6091 81.7624 80.0839C80.9303 79.1528 80.0369 78.2785 79.088 77.4668C78.7328 77.1536 78.3098 76.927 77.8523 76.8048C77.5072 76.7203 77.1469 76.7203 76.8019 76.8048C76.5053 76.8855 76.2227 77.0105 75.9634 77.1755C76.0152 77.1119 76.078 77.0581 76.1487 77.0167C76.3417 76.8864 76.5529 76.7852 76.7754 76.7165C77.1331 76.6071 77.5128 76.5904 77.8787 76.668C78.3671 76.7758 78.8217 77.0016 79.2027 77.3256C80.1741 78.1259 81.0856 78.9962 81.9302 79.9294C82.4112 80.4502 82.9055 81.0063 83.391 81.6153C83.6293 81.9154 83.8676 82.2288 84.0927 82.5642C84.203 82.7363 84.3133 82.904 84.4104 83.0938C84.5323 83.287 84.5866 83.5151 84.5649 83.7425C84.5078 84.1456 84.3566 84.5297 84.1236 84.8635C83.9958 85.0324 83.8273 85.166 83.6337 85.2519C83.4367 85.3343 83.2181 85.3498 83.0114 85.296C82.6472 85.1721 82.3144 84.9703 82.0361 84.7046C81.758 84.4751 81.4977 84.2324 81.2461 83.9985C80.2487 83.0452 79.3925 82.1405 78.682 81.3505L76.9475 80.0265H76.9873L75.8751 80.1589C75.7558 80.2001 75.6333 80.2311 75.5088 80.2516Z" fill="#FF9A6C"/>
<path d="M82.4423 84.7709C82.4258 84.9019 82.3901 85.0298 82.3364 85.1505C82.2911 85.3014 82.2351 85.4489 82.1687 85.5918C82.1114 85.6877 82.0347 85.7706 81.9435 85.8352C81.8523 85.8998 81.7486 85.9447 81.6391 85.9669C81.098 86.0476 80.5464 86.0221 80.015 85.8919C79.3869 85.6899 78.783 85.419 78.2144 85.0843C77.4906 84.6827 76.8286 84.2766 76.2637 83.9059H76.3917L76.2637 84.0295C76.1297 84.1876 75.9489 84.2989 75.7474 84.3472C75.5849 84.3994 75.4179 84.4363 75.2486 84.4576C74.9778 84.4911 74.7051 84.5074 74.4322 84.5061C74.1956 84.53 73.9567 84.5044 73.7305 84.4311C73.7905 84.4229 73.8514 84.4229 73.9114 84.4311L74.4322 84.4046C74.6529 84.4046 74.9221 84.3605 75.2222 84.3075C75.3808 84.2792 75.5372 84.2394 75.69 84.1884C75.8481 84.1462 75.9897 84.0569 76.096 83.9324L76.224 83.8L76.277 83.7426L76.352 83.7868C76.9213 84.1398 77.5877 84.537 78.3027 84.9342C78.8539 85.2596 79.4364 85.5287 80.0415 85.7374C80.5419 85.8704 81.0619 85.9137 81.5773 85.8654C81.6662 85.8491 81.7509 85.8154 81.8267 85.7661C81.9024 85.7169 81.9677 85.6531 82.0187 85.5786C82.1025 85.4373 82.1555 85.2829 82.2129 85.1725C82.2662 85.0267 82.3438 84.8909 82.4423 84.7709Z" fill="#FF9A6C"/>
<path d="M89.137 89.4225L79.666 94.083L80.1073 102.954C80.1073 102.954 86.8862 103.836 92.9059 96.1881L89.137 89.4225Z" fill="#FFBF9D"/>
<path d="M84.1587 150.953C84.176 150.897 84.1967 150.843 84.2205 150.79L84.4191 150.317L85.1958 148.512L88.1174 141.817C90.6242 136.12 94.1239 128.176 98.1047 119.137V119.186C98.0341 116.754 97.9415 114.216 97.8223 111.63C97.5487 105.796 97.2309 100.24 97.0191 95.1863C96.8072 90.133 96.6748 85.5697 96.6351 81.7433C96.5954 77.917 96.6351 74.8144 96.6351 72.674L96.6925 70.2114C96.6925 69.9377 96.6925 69.7259 96.6925 69.5714C96.6925 69.417 96.6925 69.3508 96.6925 69.3508C96.6963 69.4243 96.6963 69.4979 96.6925 69.5714C96.6925 69.7259 96.6925 69.9377 96.6925 70.2114C96.6925 70.7851 96.6925 71.6148 96.6925 72.6784C96.6925 74.8189 96.6925 77.9126 96.7454 81.7389C96.7984 85.5653 96.9485 90.1242 97.1868 95.173C97.4251 100.222 97.7164 105.787 98.0076 111.621C98.1268 114.208 98.2151 116.745 98.2901 119.181V119.204V119.23L88.2366 141.875C86.9876 144.704 85.9726 146.972 85.2664 148.561L84.4544 150.326C84.3661 150.525 84.2911 150.675 84.2425 150.79C84.2182 150.846 84.1902 150.9 84.1587 150.953Z" fill="#1F4787"/>
<path d="M109.121 100.897C109.102 100.861 109.088 100.822 109.081 100.782L108.997 100.438C108.922 100.12 108.821 99.6747 108.688 99.1142C108.45 97.9579 108.106 96.2764 107.806 94.1845C107.506 92.0926 107.179 89.5903 106.923 86.8055C106.667 84.0207 106.482 80.949 106.332 77.7229C106.279 76.5225 106.226 75.3397 106.173 74.1922C106.146 73.6141 106.124 73.0448 106.098 72.4843L106.058 71.6458V71.2309V71.0191C106.058 70.9838 106.058 70.944 106.058 70.9043V70.8293C106.066 70.8129 106.076 70.798 106.089 70.7852C106.105 70.7696 106.125 70.7583 106.146 70.7521C106.168 70.7459 106.191 70.7452 106.212 70.7499C106.292 70.794 106.27 70.7984 106.292 70.8205L106.133 70.7852L108.613 69.0552V69.2361L105.921 67.9739L105.846 67.9386L105.868 67.8636C106.274 66.3321 106.751 64.9728 107.192 63.768C107.634 62.5632 108.018 61.526 108.349 60.6787C108.68 59.8313 108.949 59.1649 109.134 58.7148C109.227 58.5029 109.297 58.3308 109.35 58.2028C109.374 58.1436 109.402 58.0861 109.434 58.0307C109.426 58.0933 109.408 58.1543 109.381 58.2116L109.187 58.7368L108.481 60.7361C108.168 61.5922 107.788 62.6382 107.369 63.8254C106.95 65.0126 106.486 66.3939 106.093 67.9121L106.04 67.8018L108.741 69.0507L108.905 69.1258L108.759 69.2317L106.288 70.9705L106.129 70.9352C106.129 70.9352 106.208 70.8778 106.199 70.8778C106.213 70.8908 106.23 70.9 106.248 70.9043H106.283V70.997V71.1956V71.606C106.283 71.8841 106.31 72.1621 106.327 72.4402C106.354 73.0051 106.376 73.5744 106.402 74.1525C106.455 75.3044 106.513 76.4872 106.566 77.6832C106.716 80.9049 106.905 83.9721 107.139 86.7569C107.373 89.5417 107.664 92.0529 107.96 94.1316C108.256 96.2103 108.569 97.905 108.781 99.0657C108.896 99.6364 108.984 100.078 109.046 100.39L109.108 100.738C109.116 100.871 109.121 100.897 109.121 100.897Z" fill="#1F4787"/>
<path d="M97.0762 96.9252C97.0365 96.9252 97.0188 96.528 96.8025 95.9322C96.5284 95.1567 96.0203 94.4855 95.3483 94.0112C94.6764 93.5369 93.8737 93.2828 93.0512 93.2842C92.4201 93.2842 92.0362 93.4033 92.0273 93.3636C92.3431 93.2035 92.6928 93.1218 93.0468 93.1253C93.9121 93.0743 94.7693 93.3173 95.4791 93.8149C96.1889 94.3124 96.7097 95.0352 96.957 95.866C97.0839 96.2037 97.1249 96.5677 97.0762 96.9252Z" fill="#1F4787"/>
<path d="M93.7708 94.745C93.6775 94.9709 93.5668 95.1893 93.4398 95.3982C93.31 95.6538 93.1625 95.9 92.9985 96.1352C92.8043 96.4088 92.6057 96.7398 92.332 97.062C92.1996 97.2253 92.0584 97.3974 91.9172 97.5783C91.776 97.7593 91.595 97.9226 91.4273 98.1079C91.064 98.4938 90.6811 98.8606 90.2799 99.2069C88.4285 100.796 86.2356 101.936 83.8717 102.539C83.3572 102.671 82.8356 102.774 82.3094 102.848C82.0667 102.883 81.8284 102.927 81.5989 102.945L80.9369 102.989C80.5562 103.011 80.1745 103.011 79.7938 102.989C79.5075 102.992 79.2214 102.975 78.9376 102.936C78.6939 102.92 78.4519 102.885 78.2139 102.83C78.2139 102.773 79.2554 102.936 80.9236 102.83L81.5768 102.773C81.8063 102.751 82.0402 102.702 82.2829 102.667C82.7684 102.601 83.2803 102.464 83.8143 102.34C86.14 101.721 88.3008 100.597 90.143 99.048C90.5437 98.7119 90.9266 98.3555 91.2905 97.98C91.4582 97.799 91.6347 97.6401 91.7804 97.4636C91.926 97.2871 92.0717 97.1238 92.2217 96.9649C93.2588 95.6585 93.7222 94.7185 93.7708 94.745Z" fill="#1F4787"/>
<path d="M83.457 85.1548C83.5276 85.1548 83.4967 86.0595 83.8012 87.1143C84.1057 88.1691 84.6 88.9282 84.5382 88.9679C84.0938 88.4478 83.767 87.8378 83.5804 87.1797C83.3937 86.5215 83.3516 85.8307 83.457 85.1548Z" fill="#FF9A6C"/>
<path d="M83.766 80.1545C83.8278 80.1766 83.7395 80.5517 83.6777 81.0372C83.616 81.5227 83.6027 81.8846 83.5365 81.889C83.4703 81.8934 83.382 81.5006 83.4482 81.0063C83.5144 80.512 83.6954 80.1545 83.766 80.1545Z" fill="#FF9A6C"/>
<path d="M152.613 124.583L161.603 64.0813L145.009 57.9997C145.009 57.9997 141.121 54.4249 139.051 52.5714L138.323 61.9276C138.323 61.9276 136.059 100.178 139.594 119.433C143.129 138.688 142.626 138.044 145.212 150.578C147.092 159.696 147.419 167.662 150.234 168.465C153.05 169.268 162.87 154.912 162.87 154.912L152.613 124.583Z" fill="#A69E9D"/>
<path d="M161.586 64.0813C161.586 64.0813 166.617 66.5483 167.367 73.5743C168.034 79.753 169.133 117.707 168.987 120.757C168.841 123.807 166.211 132.466 161.484 132.766C154.004 133.242 151.947 127.47 151.947 127.47L153.938 108.091L161.586 64.0813Z" fill="#A69E9D"/>
<path d="M142.556 98.8626V98.7478C142.556 98.6596 142.591 98.5536 142.618 98.4168C142.679 98.1123 142.763 97.6886 142.869 97.1546C143.068 96.0513 143.372 94.4581 143.655 92.4765C144.246 88.5045 144.749 83.0011 145.041 76.8975C145.111 75.4588 145.177 74.0509 145.239 72.6916C145.27 72.012 145.301 71.3412 145.332 70.688C145.332 70.3614 145.367 70.0348 145.38 69.7171C145.38 69.5582 145.38 69.3993 145.402 69.2404V69.0065C145.405 68.9713 145.405 68.9359 145.402 68.9006C145.404 68.8889 145.404 68.877 145.402 68.8653C145.411 68.8738 145.422 68.8802 145.433 68.884C145.444 68.8878 145.457 68.889 145.469 68.8874C145.495 68.8874 145.539 68.8565 145.53 68.8609L145.376 68.8918L142.905 67.1529L142.763 67.0514L142.918 66.9808L145.623 65.7363L145.575 65.8378C145.332 64.7524 145.148 63.6548 145.023 62.5499C144.899 61.5745 144.776 60.736 144.643 60.0607C144.511 59.3855 144.365 58.8603 144.259 58.5117C144.206 58.3484 144.162 58.2204 144.131 58.1145C144.112 58.0708 144.099 58.0248 144.092 57.9777C144.118 58.0171 144.139 58.0602 144.153 58.1056C144.189 58.1939 144.246 58.3219 144.308 58.494C144.486 58.9994 144.634 59.5153 144.749 60.0387C144.895 60.7183 145.032 61.5569 145.191 62.5278C145.349 63.4987 145.477 64.6065 145.769 65.7936V65.8642L145.703 65.8951L143.01 67.1618V66.9896L145.491 68.7197L145.336 68.7506V68.7197C145.359 68.6967 145.388 68.6826 145.42 68.6799C145.45 68.6778 145.48 68.6872 145.504 68.7064L145.526 68.7329C145.528 68.746 145.528 68.7595 145.526 68.7726C145.528 68.799 145.528 68.8256 145.526 68.8521C145.526 68.9006 145.526 68.9403 145.526 68.98V69.2228V69.7038C145.526 70.026 145.491 70.3482 145.477 70.6748C145.447 71.3323 145.42 71.9987 145.389 72.6784C145.327 74.0406 145.263 75.4426 145.195 76.8843C144.983 82.1051 144.497 87.3111 143.739 92.4809C143.439 94.4625 143.108 96.0513 142.882 97.1502C142.754 97.6798 142.657 98.1035 142.587 98.408L142.507 98.7302C142.531 98.771 142.548 98.8159 142.556 98.8626Z" fill="#1F4787"/>
<g opacity="0.3">
<path d="M118.155 130.047C118.155 130.047 117.021 131.521 119.514 131.971C122.008 132.421 150.235 130.338 150.235 130.338L155.602 133.454L154.9 131.203L150.407 126.428L118.155 130.047Z" fill="black"/>
</g>
<path d="M152.08 83.0938L116.535 84.9077C116.131 84.9279 115.749 85.097 115.463 85.3823C115.177 85.6676 115.007 86.0488 114.986 86.4523L112.625 128.613C112.612 128.842 112.648 129.072 112.73 129.287C112.812 129.502 112.938 129.697 113.1 129.86C113.263 130.022 113.457 130.149 113.672 130.232C113.887 130.314 114.116 130.35 114.346 130.338L148.831 128.533C149.227 128.513 149.602 128.35 149.886 128.074C150.17 127.798 150.344 127.428 150.376 127.033L153.792 84.8591C153.81 84.6272 153.779 84.3939 153.7 84.1749C153.622 83.9559 153.497 83.7562 153.335 83.5892C153.173 83.4221 152.977 83.2915 152.761 83.2061C152.544 83.1207 152.312 83.0824 152.08 83.0938Z" fill="#1F4787"/>
<path d="M159.538 73.8524C159.527 73.9799 159.507 74.1066 159.481 74.2319C159.428 74.5011 159.357 74.8586 159.273 75.3087L158.492 79.2807C157.843 82.6216 156.996 87.2247 156.184 92.375C155.372 97.5254 154.754 102.164 154.344 105.54C154.141 107.217 153.977 108.576 153.863 109.543C153.805 109.984 153.761 110.364 153.73 110.633C153.719 110.759 153.698 110.885 153.668 111.008C153.657 110.882 153.657 110.755 153.668 110.628C153.695 110.355 153.721 109.993 153.761 109.534C153.845 108.585 153.982 107.217 154.167 105.522C154.538 102.137 155.134 97.4724 155.932 92.3353C156.731 87.1982 157.623 82.5819 158.311 79.2498C158.655 77.5816 158.947 76.2355 159.163 75.3087C159.269 74.8674 159.348 74.5055 159.41 74.2407C159.442 74.1079 159.485 73.978 159.538 73.8524Z" fill="#1F4787"/>
<path d="M152.803 110.704C152.803 110.704 154.851 110.823 156.66 113.85L160.125 116.057C160.125 116.057 163.157 120.819 160.125 125.267C157.093 129.716 153.434 125.934 153.434 125.934C153.434 125.934 149.771 127.748 148.752 127.434C147.732 127.121 140.808 123.387 139.775 122.531C139.475 122.275 137.242 119.711 137.242 119.711C137.242 119.711 134.152 119.049 133.791 118.339C133.429 117.628 133.411 116.004 135.499 116.163C135.499 116.163 133.468 115.549 133.234 114.525C133.001 113.502 133.234 112.169 136.831 112.681C140.428 113.193 147.322 115.108 148.121 114.914C148.204 114.867 148.272 114.797 148.317 114.712C148.361 114.627 148.381 114.531 148.372 114.436C148.364 114.34 148.328 114.249 148.27 114.174C148.211 114.098 148.132 114.041 148.041 114.009C147.785 113.89 139.656 110.73 138.354 110.373C136.946 109.989 136.743 106.842 139.656 107.592C142.569 108.342 152.057 110.624 152.057 110.624L152.803 110.704Z" fill="#FFBF9D"/>
<path d="M147.45 122.756C146.939 122.642 146.437 122.495 145.945 122.315C145.023 122.01 143.738 121.604 142.326 121.19C140.914 120.775 139.612 120.435 138.672 120.192C138.157 120.082 137.651 119.935 137.158 119.751C137.299 119.75 137.44 119.766 137.577 119.799C137.847 119.843 138.235 119.918 138.712 120.016C139.661 120.219 140.967 120.536 142.392 120.951C143.818 121.366 145.089 121.803 145.998 122.143C146.439 122.315 146.819 122.456 147.07 122.584C147.204 122.625 147.332 122.682 147.45 122.756Z" fill="#FF9A6C"/>
<path d="M148.615 118.992C148.438 118.997 148.26 118.985 148.085 118.956C147.745 118.917 147.251 118.855 146.646 118.762C145.437 118.581 143.769 118.294 141.942 117.88C140.115 117.465 138.477 117.072 137.299 116.736C136.708 116.573 136.235 116.432 135.909 116.326C135.736 116.28 135.567 116.218 135.406 116.141C135.584 116.153 135.76 116.185 135.931 116.238L137.339 116.582C138.526 116.873 140.168 117.266 141.99 117.654C143.813 118.043 145.473 118.361 146.673 118.581L148.098 118.846C148.276 118.871 148.45 118.92 148.615 118.992Z" fill="#FF9A6C"/>
<path d="M158.47 118.18C158.49 118.304 158.49 118.43 158.47 118.555C158.454 118.892 158.41 119.227 158.338 119.557C157.87 121.779 156.577 123.741 154.719 125.047C154.44 125.244 154.145 125.416 153.836 125.563C153.62 125.669 153.497 125.722 153.492 125.704C153.488 125.687 153.934 125.426 154.613 124.914C155.484 124.245 156.237 123.435 156.842 122.518C157.444 121.598 157.892 120.586 158.166 119.521C158.391 118.705 158.426 118.175 158.47 118.18Z" fill="#FF9A6C"/>
<path d="M159.618 126.428C159.582 126.397 160.059 125.938 160.597 125.033C161.304 123.86 161.698 122.524 161.74 121.155C161.783 119.786 161.473 118.428 160.84 117.213C160.363 116.277 159.913 115.788 159.957 115.761C160.08 115.856 160.188 115.967 160.28 116.092C160.551 116.418 160.792 116.768 160.999 117.138C161.687 118.366 162.028 119.758 161.983 121.165C161.939 122.572 161.512 123.94 160.747 125.122C160.52 125.477 160.262 125.811 159.975 126.119C159.87 126.238 159.75 126.342 159.618 126.428Z" fill="#1F4787"/>
<path d="M167.619 111.295C167.592 111.335 167.036 110.907 166.034 110.412C165.447 110.13 164.837 109.897 164.212 109.715C163.45 109.5 162.67 109.355 161.881 109.282C161.085 109.23 160.286 109.252 159.494 109.349C158.849 109.434 158.213 109.574 157.592 109.768C156.528 110.103 155.915 110.443 155.897 110.399C156.025 110.299 156.164 110.215 156.312 110.147C156.478 110.051 156.65 109.967 156.828 109.896C157.06 109.789 157.297 109.695 157.539 109.613C158.165 109.394 158.811 109.236 159.467 109.141C160.273 109.03 161.088 109.001 161.899 109.053C162.709 109.121 163.51 109.269 164.291 109.494C164.925 109.688 165.54 109.941 166.127 110.249C166.353 110.366 166.572 110.494 166.785 110.633C166.951 110.731 167.11 110.84 167.261 110.959C167.394 111.056 167.514 111.169 167.619 111.295Z" fill="#1F4787"/>
<g opacity="0.3">
<path d="M144.392 58.7632C144.392 58.7632 147.388 65.7539 146.969 66.3365C146.55 66.919 144.974 67.3339 144.974 67.3339C144.974 67.3339 147.556 68.446 147.552 69.439C147.552 71.4118 144.784 83.0894 144.784 83.0894L145.469 68.8256L142.993 67.0912L145.689 65.8378L144.392 58.7632Z" fill="black"/>
</g>
<path d="M151.934 84.5944C151.869 84.6056 151.802 84.613 151.736 84.6165L151.149 84.6606L148.894 84.8106L140.605 85.3138L128.306 86.0287L121.046 86.4436L119.139 86.5495L118.177 86.6069C118.018 86.6069 117.842 86.6069 117.7 86.6333C117.56 86.6537 117.429 86.7134 117.321 86.8055C117.213 86.8992 117.133 87.0215 117.091 87.1585C117.059 87.3036 117.042 87.4514 117.038 87.5999L116.972 88.584L116.84 90.5744C116.103 101.25 115.436 110.911 114.955 117.937C114.704 121.428 114.514 124.257 114.359 126.221C114.284 127.192 114.223 127.946 114.183 128.472C114.161 128.723 114.143 128.913 114.134 129.058C114.126 129.204 114.108 129.257 114.108 129.257C114.108 129.257 114.108 129.191 114.108 129.058C114.108 128.926 114.108 128.719 114.139 128.472C114.17 127.942 114.214 127.187 114.267 126.216C114.39 124.248 114.571 121.419 114.792 117.928C115.26 110.92 115.9 101.255 116.61 90.5656C116.654 89.9007 116.699 89.2387 116.743 88.5796L116.809 87.5954C116.811 87.4216 116.832 87.2486 116.871 87.0791C116.929 86.9073 117.032 86.7547 117.171 86.6378C117.313 86.5183 117.486 86.4404 117.669 86.4127C117.85 86.4127 117.996 86.4127 118.164 86.3818L119.126 86.3288L121.032 86.2229L128.297 85.8213L140.597 85.1549L148.889 84.7135L151.144 84.6076L151.731 84.5856L151.934 84.5944Z" fill="#455A64"/>
</svg>
